<?xml version="1.0" encoding="UTF-8"?>
<svg id="Layer_1" data-name="Layer 1" xmlns="http://www.w3.org/2000/svg" viewBox="0 0 452.67 59.51">
  <defs>
    <style>
      .cls-1 {
        fill: #ed1a3b;
      }

      .cls-1, .cls-2, .cls-3 {
        stroke-width: 0px;
      }

      .cls-2, .cls-4 {
        fill: #004fa3;
      }

      .cls-4 {
        stroke: #004fa3;
        stroke-miterlimit: 10;
        stroke-width: .12px;
      }

      .cls-3 {
        fill: #fff;
      }
    </style>
  </defs>
  <g>
    <g>
      <path class="cls-2" d="M300.74,8.77c0-3.95-.08-4.52-2.32-4.79l-.61-.08c-.23-.15-.15-.84.08-.95,1.63.08,2.93.11,4.48.11h7.14c2.43,0,4.67,0,5.13-.11.23.65.46,3.38.61,5.05-.15.23-.76.3-.95.08-.57-1.79-.91-3.12-2.89-3.61-.8-.19-2.01-.23-3.69-.23h-2.74c-1.14,0-1.14.08-1.14,1.52v7.6c0,1.06.11,1.06,1.25,1.06h2.2c1.6,0,2.77-.08,3.23-.23s.72-.38.91-1.33l.3-1.56c.19-.23.84-.23.99.04,0,.91-.15,2.39-.15,3.84,0,1.37.15,2.81.15,3.65-.15.27-.8.27-.99.04l-.34-1.48c-.15-.68-.42-1.25-1.18-1.44-.53-.15-1.44-.19-2.93-.19h-2.2c-1.14,0-1.25.04-1.25,1.03v5.36c0,2.01.11,3.31.72,3.95.46.46,1.25.87,4.6.87,2.93,0,4.03-.15,4.86-.57.68-.38,1.71-1.71,2.7-3.69.27-.19.8-.08.95.27-.27,1.33-1.22,4.26-1.71,5.28-3.42-.08-6.8-.11-10.18-.11h-3.42c-1.63,0-2.93.04-5.17.11-.23-.11-.3-.72-.08-.95l1.25-.11c2.17-.19,2.36-.76,2.36-4.75v-13.68Z"/>
      <path class="cls-2" d="M331.01,13.29c.3.27.57.87.57,1.52,0,.68-.38,1.41-.84,1.41-.19,0-.38-.08-.53-.27-.84-1.03-2.24-2.01-3.8-2.01-2.66,0-5.24,2.09-5.24,6.12,0,2.96,2.05,6.5,6.12,6.5,2.2,0,3.34-.99,4.22-2.28.3-.08.65.19.68.53-1.29,2.81-4.14,3.88-6.34,3.88-2.01,0-3.88-.65-5.21-1.94s-2.2-3.15-2.2-5.62c0-4.1,2.89-8.47,9.2-8.47.87,0,2.36.19,3.38.65Z"/>
      <path class="cls-2" d="M349.4,20.51c0,4.75-3.27,8.17-8.02,8.17-4.37,0-7.79-3.08-7.79-7.83s3.61-8.21,8.09-8.21,7.71,3.19,7.71,7.86ZM341.23,13.79c-2.51,0-4.37,2.39-4.37,6.57,0,3.46,1.56,7.18,4.9,7.18s4.37-3.5,4.37-6.42c0-3.23-1.29-7.33-4.9-7.33Z"/>
      <path class="cls-2" d="M353.46,17.24c0-1.48,0-1.67-1.03-2.36l-.34-.23c-.15-.15-.15-.57.04-.68.87-.3,3.04-1.29,3.8-1.86.15,0,.34.08.42.27-.08.87-.08,1.44-.08,1.79,0,.23.15.42.42.42,1.6-.99,3.38-1.94,5.32-1.94,3.15,0,4.45,2.17,4.45,4.71v6.54c0,2.74.08,3.12,1.44,3.31l.84.11c.27.19.19.84-.08.95-1.14-.08-2.24-.11-3.57-.11s-2.51.04-3.53.11c-.27-.11-.34-.76-.08-.95l.72-.11c1.41-.23,1.44-.57,1.44-3.31v-5.66c0-2.17-.99-3.76-3.57-3.76-1.44,0-2.7.61-3.23,1.33-.49.65-.57,1.18-.57,2.28v5.81c0,2.74.08,3.08,1.44,3.31l.68.11c.27.19.19.84-.08.95-1.03-.08-2.13-.11-3.46-.11s-2.51.04-3.57.11c-.27-.11-.34-.76-.08-.95l.8-.11c1.41-.19,1.44-.57,1.44-3.31v-6.65Z"/>
      <path class="cls-2" d="M385.82,20.51c0,4.75-3.27,8.17-8.02,8.17-4.37,0-7.79-3.08-7.79-7.83s3.61-8.21,8.09-8.21,7.71,3.19,7.71,7.86ZM377.65,13.79c-2.51,0-4.37,2.39-4.37,6.57,0,3.46,1.56,7.18,4.9,7.18s4.37-3.5,4.37-6.42c0-3.23-1.29-7.33-4.9-7.33Z"/>
      <path class="cls-2" d="M410.01,18.38c0-2.58-1.14-3.91-3.53-3.91-1.44,0-2.62.65-3.15,1.33-.46.57-.57.95-.57,2.28v5.81c0,2.74.08,3.12,1.44,3.31l.8.11c.27.19.19.84-.08.95-1.14-.08-2.24-.11-3.57-.11s-2.39.04-3.46.11c-.27-.11-.34-.76-.08-.95l.68-.11c1.41-.23,1.44-.57,1.44-3.31v-5.51c0-2.55-1.14-3.91-3.5-3.91-1.56,0-2.62.68-3.19,1.37-.38.46-.57.95-.57,2.17v5.89c0,2.74.08,3.08,1.44,3.31l.68.11c.27.19.19.84-.08.95-1.03-.08-2.13-.11-3.46-.11s-2.51.04-3.69.11c-.27-.11-.34-.76-.08-.95l.91-.11c1.41-.19,1.44-.57,1.44-3.31v-6.65c0-1.48,0-1.67-1.03-2.36l-.34-.23c-.15-.15-.15-.57.04-.68.87-.3,3.04-1.29,3.8-1.86.15,0,.34.08.42.27-.08.87-.08,1.44-.08,1.79,0,.23.15.42.42.42,1.44-1.03,3.23-1.94,5.05-1.94s2.96.68,4.03,2.24c.34.08.61-.08.95-.3,1.52-1.06,3.38-1.94,5.17-1.94,3.04,0,4.52,2.09,4.52,4.71v6.54c0,2.74.08,3.12,1.44,3.31l.91.11c.27.19.19.84-.08.95-1.25-.08-2.36-.11-3.69-.11s-2.39.04-3.46.11c-.27-.11-.34-.76-.08-.95l.68-.11c1.41-.23,1.44-.57,1.44-3.31v-5.51Z"/>
      <path class="cls-2" d="M419.78,17.24c0-1.48,0-1.67-1.03-2.36l-.34-.23c-.15-.15-.15-.57.04-.68.87-.3,3.04-1.29,3.91-1.86.19,0,.34.08.38.23-.08,1.33-.15,3.15-.15,4.71v6.84c0,2.74.08,3.12,1.44,3.31l.8.11c.27.19.19.84-.08.95-1.14-.08-2.24-.11-3.57-.11s-2.51.04-3.57.11c-.27-.11-.34-.76-.08-.95l.8-.11c1.41-.19,1.44-.57,1.44-3.31v-6.65ZM422.9,4.93c0,1.33-.95,1.94-1.98,1.94-1.18,0-1.94-.84-1.94-1.86,0-1.25.95-2.01,2.05-2.01s1.86.87,1.86,1.94Z"/>
      <path class="cls-2" d="M439.77,13.29c.3.27.57.87.57,1.52,0,.68-.38,1.41-.84,1.41-.19,0-.38-.08-.53-.27-.84-1.03-2.24-2.01-3.8-2.01-2.66,0-5.24,2.09-5.24,6.12,0,2.96,2.05,6.5,6.12,6.5,2.2,0,3.34-.99,4.22-2.28.3-.08.65.19.68.53-1.29,2.81-4.14,3.88-6.34,3.88-2.01,0-3.88-.65-5.21-1.94-1.33-1.29-2.2-3.15-2.2-5.62,0-4.1,2.89-8.47,9.2-8.47.87,0,2.36.19,3.38.65Z"/>
      <path class="cls-2" d="M451.43,13.33c.34.84.61,2.05.61,3.08-.15.27-.72.34-.91.11-.65-1.67-1.79-2.77-3.34-2.77s-2.43.95-2.43,2.32c0,1.56,1.6,2.39,2.92,3.15,2.01,1.14,3.88,2.43,3.88,5.13,0,2.89-2.66,4.33-5.47,4.33-1.79,0-3.12-.38-4.07-1.14-.3-.72-.53-2.58-.46-3.84.19-.23.68-.27.87-.04.65,2.09,1.86,3.91,4.03,3.91,1.37,0,2.55-.8,2.55-2.43,0-1.75-1.52-2.7-2.93-3.5-2.2-1.25-3.76-2.58-3.76-4.67,0-2.77,2.28-4.33,5.17-4.33,1.6,0,3,.38,3.34.68Z"/>
    </g>
    <g>
      <path class="cls-2" d="M81.89,8.06c0-2.66-.19-3.46-1.79-3.69l-.84-.11c-.3-.19-.34-.8.04-.95,3.23-.19,6.31-.3,9.54-.3s5.89.23,8.36,1.14c5.13,1.86,7.71,6.19,7.71,11.21s-2.32,8.97-6.65,11.32c-2.47,1.33-5.58,1.82-8.51,1.82-2.43,0-4.86-.3-6.19-.3-1.6,0-2.96.04-4.75.11-.23-.11-.3-.72-.08-.95l.87-.11c2.2-.3,2.28-.76,2.28-4.75v-14.44ZM85.01,21.62c0,2.01.11,3.23.76,4.14.84,1.18,2.28,1.56,4.67,1.56,7.37,0,10.68-4.83,10.68-11.89,0-4.18-2.01-11.25-11.97-11.25-2.24,0-3.46.3-3.76.53-.3.23-.38,1.18-.38,2.89v14.02Z"/>
      <path class="cls-2" d="M110.61,18.47c-.99,0-1.03.08-1.03,1.03,0,3.84,2.24,7.1,6.31,7.1,1.25,0,2.32-.38,3.5-1.86.38-.11.65.11.68.46-1.25,2.58-3.99,3.53-5.97,3.53-2.47,0-4.41-1.06-5.51-2.51-1.14-1.48-1.6-3.27-1.6-4.94,0-4.67,3.08-8.59,7.64-8.59,3.27,0,5.4,2.24,5.4,4.52,0,.53-.08.84-.15.99-.11.23-.65.27-2.24.27h-7.03ZM112.96,17.33c2.81,0,3.65-.15,3.95-.38.11-.08.23-.23.23-.72,0-1.06-.72-2.39-2.93-2.39s-4.18,2.05-4.22,3.31c0,.08,0,.19.27.19h2.7Z"/>
      <path class="cls-2" d="M123.94,17.29c0-1.48,0-1.67-1.03-2.36l-.34-.23c-.15-.15-.15-.57.04-.68.99-.42,2.77-1.33,3.76-2.05.23,0,.38.08.46.27-.08.68-.15,1.25-.15,1.75,0,.27.08.49.34.49.49-.23,2.89-1.79,5.32-1.79,3.84,0,6.31,3.12,6.31,6.95,0,5.28-3.88,9.08-9.27,9.08-.68,0-1.75-.08-2.09-.15-.34.08-.53.27-.53,1.06v3.99c0,2.7.08,3.04,1.44,3.23l1.48.19c.27.19.19.84-.08.95-1.82-.08-2.93-.11-4.26-.11s-2.51.04-3.57.11c-.27-.11-.34-.76-.08-.95l.8-.11c1.41-.19,1.44-.57,1.44-3.31v-16.34ZM126.76,24.36c0,1.22.38,1.67,1.14,2.28.76.57,1.94.84,2.74.84,3.12,0,4.94-2.89,4.94-6.84,0-3.04-1.71-6.12-5.13-6.12-1.63,0-2.81.61-3.23,1.06-.34.42-.46.99-.46,2.24v6.54Z"/>
      <path class="cls-2" d="M147.98,20.33c.57-.19.61-.53.65-1.1l.04-1.75c.04-1.41-.42-3.31-2.77-3.31-1.06,0-2.36.53-2.43,1.71-.04.61-.08,1.06-.38,1.29-.57.46-1.6.72-2.17.72-.34,0-.53-.19-.53-.53,0-1.98,4.29-4.67,7.07-4.67s4.07,1.6,3.95,4.45l-.23,6.61c-.08,1.75.27,3.31,1.75,3.31.38,0,.72-.11.95-.23.19-.11.38-.27.49-.27.15,0,.27.23.27.49,0,.19-1.33,1.67-3.19,1.67-.91,0-1.82-.34-2.47-1.18-.15-.23-.38-.53-.61-.53-.27,0-.72.34-1.48.76-.84.46-1.67.95-2.74.95s-2.01-.3-2.66-.87c-.72-.65-1.18-1.6-1.18-2.66,0-1.48.72-2.36,3.15-3.23l4.52-1.63ZM145.63,27.02c.76,0,1.94-.57,2.32-.95.46-.46.49-.99.49-1.79l.08-2.24c0-.42-.15-.49-.38-.49s-.87.15-1.56.38c-2.24.76-3.34,1.33-3.34,2.81,0,.65.46,2.28,2.39,2.28Z"/>
      <path class="cls-2" d="M158.05,17.29c0-1.48,0-1.67-1.03-2.36l-.34-.23c-.15-.15-.15-.57.04-.68.87-.3,2.89-1.29,3.84-1.86.19.04.3.11.3.27v2.2c0,.19.04.3.11.34,1.33-1.1,2.77-2.28,4.18-2.28.95,0,1.71.61,1.71,1.52,0,1.25-1.03,1.75-1.63,1.75-.38,0-.57-.11-.84-.27-.57-.38-1.14-.61-1.67-.61-.61,0-1.06.34-1.37.76-.38.53-.49,1.63-.49,2.93v5.17c0,2.74.08,3.19,1.52,3.31l1.37.11c.27.19.19.84-.08.95-1.79-.08-2.89-.11-4.22-.11s-2.51.04-3.5.11c-.27-.11-.34-.76-.08-.95l.72-.11c1.41-.23,1.44-.57,1.44-3.31v-6.65Z"/>
      <path class="cls-2" d="M173.79,14.82c-.65,0-.68.11-.68.91v7.1c0,2.2.27,4.22,2.77,4.22.38,0,.72-.08,1.03-.19.34-.11.84-.53.95-.53.3,0,.46.42.38.65-.68.8-2.05,1.75-3.99,1.75-3.27,0-3.95-1.82-3.95-4.1v-8.7c0-1.03-.04-1.1-.8-1.1h-1.06c-.23-.15-.27-.57-.11-.8,1.1-.34,2.05-.84,2.43-1.18.49-.46,1.22-1.48,1.6-2.24.19-.08.65-.08.8.19v1.71c0,.68.04.72.68.72h4.22c.46.34.38,1.37.04,1.6h-4.29Z"/>
      <path class="cls-2" d="M202.47,18.43c0-2.58-1.14-3.91-3.53-3.91-1.44,0-2.62.65-3.15,1.33-.46.57-.57.95-.57,2.28v5.81c0,2.74.08,3.12,1.44,3.31l.8.11c.27.19.19.84-.08.95-1.14-.08-2.24-.11-3.57-.11s-2.39.04-3.46.11c-.27-.11-.34-.76-.08-.95l.68-.11c1.41-.23,1.44-.57,1.44-3.31v-5.51c0-2.55-1.14-3.91-3.5-3.91-1.56,0-2.62.68-3.19,1.37-.38.46-.57.95-.57,2.17v5.89c0,2.74.08,3.08,1.44,3.31l.68.11c.27.19.19.84-.08.95-1.03-.08-2.13-.11-3.46-.11s-2.51.04-3.69.11c-.27-.11-.34-.76-.08-.95l.91-.11c1.41-.19,1.44-.57,1.44-3.31v-6.65c0-1.48,0-1.67-1.03-2.36l-.34-.23c-.15-.15-.15-.57.04-.68.87-.3,3.04-1.29,3.8-1.86.15,0,.34.08.42.27-.08.87-.08,1.44-.08,1.79,0,.23.15.42.42.42,1.44-1.03,3.23-1.94,5.05-1.94s2.96.68,4.03,2.24c.34.08.61-.08.95-.3,1.52-1.06,3.38-1.94,5.17-1.94,3.04,0,4.52,2.09,4.52,4.71v6.54c0,2.74.08,3.12,1.44,3.31l.91.11c.27.19.19.84-.08.95-1.25-.08-2.36-.11-3.69-.11s-2.39.04-3.46.11c-.27-.11-.34-.76-.08-.95l.68-.11c1.41-.23,1.44-.57,1.44-3.31v-5.51Z"/>
      <path class="cls-2" d="M212.46,18.47c-.99,0-1.03.08-1.03,1.03,0,3.84,2.24,7.1,6.31,7.1,1.25,0,2.32-.38,3.5-1.86.38-.11.65.11.68.46-1.25,2.58-3.99,3.53-5.96,3.53-2.47,0-4.41-1.06-5.51-2.51-1.14-1.48-1.6-3.27-1.6-4.94,0-4.67,3.08-8.59,7.64-8.59,3.27,0,5.4,2.24,5.4,4.52,0,.53-.08.84-.15.99-.11.23-.65.27-2.24.27h-7.03ZM214.81,17.33c2.81,0,3.65-.15,3.95-.38.11-.08.23-.23.23-.72,0-1.06-.72-2.39-2.93-2.39s-4.18,2.05-4.22,3.31c0,.08,0,.19.27.19h2.7Z"/>
      <path class="cls-2" d="M225.29,17.29c0-1.48,0-1.67-1.03-2.36l-.34-.23c-.15-.15-.15-.57.04-.68.87-.3,3.04-1.29,3.8-1.86.15,0,.34.08.42.27-.08.87-.08,1.44-.08,1.79,0,.23.15.42.42.42,1.6-.99,3.38-1.94,5.32-1.94,3.15,0,4.45,2.17,4.45,4.71v6.54c0,2.74.08,3.12,1.44,3.31l.84.11c.27.19.19.84-.08.95-1.14-.08-2.24-.11-3.57-.11s-2.51.04-3.53.11c-.27-.11-.34-.76-.08-.95l.72-.11c1.41-.23,1.44-.57,1.44-3.31v-5.66c0-2.17-.99-3.76-3.57-3.76-1.44,0-2.7.61-3.23,1.33-.49.65-.57,1.18-.57,2.28v5.81c0,2.74.08,3.08,1.44,3.31l.68.11c.27.19.19.84-.08.95-1.03-.08-2.13-.11-3.46-.11s-2.51.04-3.57.11c-.27-.11-.34-.76-.08-.95l.8-.11c1.41-.19,1.44-.57,1.44-3.31v-6.65Z"/>
      <path class="cls-2" d="M247.36,14.82c-.65,0-.68.11-.68.91v7.1c0,2.2.27,4.22,2.77,4.22.38,0,.72-.08,1.03-.19.34-.11.84-.53.95-.53.3,0,.46.42.38.65-.68.8-2.05,1.75-3.99,1.75-3.27,0-3.95-1.82-3.95-4.1v-8.7c0-1.03-.04-1.1-.8-1.1h-1.06c-.23-.15-.27-.57-.11-.8,1.1-.34,2.05-.84,2.43-1.18.49-.46,1.22-1.48,1.6-2.24.19-.08.65-.08.8.19v1.71c0,.68.04.72.68.72h4.22c.46.34.38,1.37.04,1.6h-4.29Z"/>
      <path class="cls-2" d="M274.82,20.56c0,4.75-3.27,8.17-8.02,8.17-4.37,0-7.79-3.08-7.79-7.83s3.61-8.21,8.09-8.21,7.71,3.19,7.71,7.87ZM266.65,13.84c-2.51,0-4.37,2.39-4.37,6.57,0,3.46,1.56,7.18,4.9,7.18s4.37-3.5,4.37-6.42c0-3.23-1.29-7.33-4.9-7.33Z"/>
      <path class="cls-2" d="M282.22,14.82c-.65,0-.65.08-.65,1.1v8.02c0,2.74.08,3.19,1.44,3.31l1.37.11c.27.19.19.84-.08.95-1.71-.08-2.81-.11-4.14-.11s-2.51.04-3.65.11c-.27-.11-.34-.76-.08-.95l.87-.11c1.41-.19,1.44-.57,1.44-3.31v-8.02c0-1.03,0-1.1-.76-1.1h-1.33c-.23-.15-.27-.49-.11-.72l1.63-.8c.3-.15.57-.38.57-.76,0-2.2.27-4.56,1.18-6.69.95-2.17,3.08-4.83,6.84-4.83,2.01,0,3.72.91,3.72,2.28,0,.76-.72,1.37-1.44,1.37-.42,0-.65-.15-.91-.46-.72-.84-1.79-1.67-3.04-1.67-1.18,0-2.13.72-2.7,2.09-.68,1.75-.84,4.52-.84,6.42v1.1c0,1.03,0,1.06.65,1.06h4.33c.42.38.15,1.44-.27,1.6h-4.07Z"/>
    </g>
  </g>
  <g>
    <g>
      <path class="cls-4" d="M81.3,44.45c1.22-.95,2.78-1.42,4.52-1.42.9,0,2.17.18,2.96.4.2.05.32.08.47.07.02.38.1,1.44.23,2.46-.08.12-.33.13-.45.03-.25-1.14-1-2.44-3.43-2.44-2.56,0-4.73,1.62-4.73,5.08s2.23,5.45,4.97,5.45c2.16,0,3.11-1.41,3.49-2.39.12-.08.37-.05.44.07-.12.87-.55,1.97-.8,2.29-.2.03-.4.1-.58.17-.37.13-1.57.38-2.64.38-1.5,0-2.94-.3-4.16-1.12-1.34-.92-2.38-2.44-2.38-4.6,0-1.86.84-3.45,2.11-4.43Z"/>
      <path class="cls-4" d="M90.76,49.71c0-2.87,2.15-5.06,5.1-5.06,3.31,0,4.97,2.39,4.97,4.91,0,2.9-2.21,5-4.97,5-3.18,0-5.1-2.28-5.1-4.86ZM99.4,50.01c0-2.36-1.05-4.92-3.78-4.92-1.49,0-3.43,1.02-3.43,4.16,0,2.12,1.03,4.87,3.85,4.87,1.72,0,3.35-1.29,3.35-4.11Z"/>
      <path class="cls-4" d="M102.56,47.03c0-1.5-.03-1.73-.93-1.81l-.36-.03c-.09-.06-.06-.32.03-.36.8.03,1.29.04,1.86.04s1.04-.02,1.76-.04c.09.04.11.3.03.36l-.34.03c-.84.07-.87.3-.87,1.81v4.99c0,.9.04,1.28.3,1.55.16.16.43.33,1.56.33,1.22,0,1.52-.06,1.75-.19.29-.17.66-.69.95-1.42.09-.07.36-.01.36.09,0,.16-.4,1.62-.6,2-.73-.03-2.09-.04-3.57-.04h-1.32c-.6,0-1.06.01-1.86.04-.09-.04-.11-.27-.03-.36l.43-.04c.83-.09.86-.29.86-1.79v-5.16Z"/>
      <path class="cls-4" d="M110.48,47.03c0-1.5-.03-1.73-.93-1.81l-.36-.03c-.09-.06-.06-.32.03-.36.8.03,1.29.04,1.86.04s1.05-.02,1.76-.04c.09.04.11.3.03.36l-.34.03c-.85.07-.87.3-.87,1.81v4.99c0,.9.04,1.28.3,1.55.16.16.43.33,1.56.33,1.22,0,1.52-.06,1.75-.19.29-.17.66-.69.95-1.42.09-.07.36-.01.36.09,0,.16-.4,1.62-.6,2-.73-.03-2.09-.04-3.57-.04h-1.32c-.6,0-1.06.01-1.86.04-.09-.04-.11-.27-.03-.36l.43-.04c.83-.09.86-.29.86-1.79v-5.16Z"/>
      <path class="cls-4" d="M118.41,47.03c0-1.49-.03-1.7-.87-1.81l-.23-.03c-.09-.06-.06-.32.03-.36.62.03,1.1.04,1.69.04h2.7c.92,0,1.76,0,1.93-.04.09.24.17,1.28.23,1.91-.06.08-.29.11-.36.03-.21-.67-.34-1.18-1.09-1.36-.3-.07-.76-.09-1.39-.09h-1.03c-.43,0-.43.03-.43.57v2.87c0,.4.04.4.47.4h.83c.6,0,1.05-.03,1.22-.09.17-.06.27-.14.34-.5l.11-.59c.07-.08.32-.08.37.01,0,.34-.06.9-.06,1.45,0,.52.06,1.06.06,1.38-.06.1-.3.1-.37.01l-.13-.56c-.06-.26-.16-.47-.44-.55-.2-.06-.54-.07-1.1-.07h-.83c-.43,0-.47.01-.47.39v2.02c0,.76.04,1.25.27,1.49.17.17.47.33,1.73.33,1.1,0,1.52-.06,1.84-.21.26-.14.64-.65,1.02-1.39.1-.07.3-.03.36.1-.1.5-.46,1.6-.64,1.99-1.29-.03-2.57-.04-3.84-.04h-1.29c-.62,0-1.1.01-1.95.04-.09-.04-.11-.27-.03-.36l.47-.04c.82-.07.89-.29.89-1.79v-5.16Z"/>
      <path class="cls-4" d="M134.24,52.88c0,.57.09.92.34,1.02.04.04.04.13-.02.17-.17,0-.43.06-.7.13-.76.2-1.79.37-2.57.37-1.71,0-3.27-.47-4.37-1.59-.86-.86-1.32-1.99-1.32-3.25s.4-2.45,1.29-3.4c.96-1,2.38-1.68,4.54-1.68.82,0,1.58.16,1.82.21.27.06.72.16.89.13,0,.47.09,1.22.21,2.08-.04.12-.3.13-.39.04-.4-1.55-1.48-2.04-2.94-2.04-2.78,0-4,1.98-4,4.13,0,2.75,1.42,4.91,4.3,4.91.89,0,1.42-.19,1.58-.43.07-.1.14-.36.14-.82v-.57c0-1.2-.04-1.29-.93-1.39l-.63-.07c-.11-.06-.1-.32,0-.36.42.03,1.2.04,2.05.04.56,0,1.05-.01,1.52-.04.1.06.11.27.01.36l-.23.03c-.6.07-.62.47-.62,1.21v.8Z"/>
      <path class="cls-4" d="M137.49,47.03c0-1.49-.03-1.7-.87-1.81l-.23-.03c-.09-.06-.06-.32.03-.36.62.03,1.1.04,1.69.04h2.69c.92,0,1.76,0,1.93-.04.09.24.17,1.28.23,1.91-.06.08-.29.11-.36.03-.22-.67-.34-1.18-1.09-1.36-.3-.07-.76-.09-1.39-.09h-1.03c-.43,0-.43.03-.43.57v2.87c0,.4.04.4.47.4h.83c.6,0,1.05-.03,1.22-.09.17-.06.27-.14.34-.5l.11-.59c.07-.08.32-.08.37.01,0,.34-.06.9-.06,1.45,0,.52.06,1.06.06,1.38-.06.1-.3.1-.37.01l-.13-.56c-.06-.26-.16-.47-.44-.55-.2-.06-.55-.07-1.1-.07h-.83c-.43,0-.47.01-.47.39v2.02c0,.76.04,1.25.27,1.49.17.17.47.33,1.74.33,1.1,0,1.52-.06,1.83-.21.26-.14.65-.65,1.02-1.39.1-.07.3-.03.36.1-.1.5-.46,1.6-.65,1.99-1.29-.03-2.56-.04-3.84-.04h-1.29c-.62,0-1.1.01-1.95.04-.09-.04-.11-.27-.03-.36l.47-.04c.82-.07.89-.29.89-1.79v-5.16Z"/>
      <path class="cls-4" d="M151.61,50.3c-.04.79-.46,2.16-1.52,3.25-.89.92-1.66.99-2.05.99-.92,0-1.52-.67-1.43-1.91.06-.89.59-2.28,1.56-3.21.74-.72,1.39-.93,1.98-.93,1.02,0,1.52.76,1.46,1.81ZM149,49.61c-.83,1.12-1.39,2.82-1.43,3.58-.03.5.17.92.59.92.31,0,.67-.13,1.13-.75.63-.84,1.3-2.74,1.33-3.5.01-.44-.07-.95-.57-.95-.29,0-.63.13-1.05.69Z"/>
      <path class="cls-4" d="M155.04,49.22c-.09.24-.2.7-.33,1.13-.46,1.59-.87,3.18-1.35,4.76-.4,1.29-.83,2.08-1.13,2.35-.17.17-.79.73-1.64.73-.66,0-.93-.49-.93-.73,0-.32.17-.44.27-.52.2-.17.3-.06.42.13.2.33.57.53.86.53.26,0,.6-.22.9-1.19.73-2.39,1.2-4.86,1.89-7.19h-1.19c-.14-.13-.09-.4.1-.53h1.23c.37-1.29.74-2.41,1.59-3.41.72-.85,1.56-1.19,2.41-1.19.6,0,1.18.37,1.18.95,0,.44-.39.89-.62.89-.13,0-.19-.13-.2-.23-.04-.86-.5-1.12-.87-1.12-.42,0-.77.29-1.12.77-.68.96-.96,2.12-1.35,3.34h1.79c.1.16.07.37-.14.53h-1.78Z"/>
      <path class="cls-4" d="M166.82,50.46c-.12-.37-.18-.42-.69-.42h-2.53c-.42,0-.52.05-.64.4l-.58,1.76c-.25.75-.37,1.2-.37,1.39,0,.2.08.3.48.33l.55.05c.12.08.12.35-.03.42-.44-.03-.95-.03-1.74-.05-.55,0-1.15.03-1.61.05-.1-.07-.13-.33-.03-.42l.55-.05c.4-.03.77-.22,1-.82.3-.77.77-1.86,1.47-3.73l1.71-4.52c.23-.6.33-.92.28-1.19.4-.12.69-.42.87-.64.1,0,.22.03.25.15.22.74.48,1.5.74,2.24l2.29,6.72c.49,1.44.7,1.69,1.42,1.77l.45.05c.12.08.08.35,0,.42-.69-.03-1.27-.05-2.02-.05-.8,0-1.44.03-1.92.05-.13-.07-.15-.33-.03-.42l.48-.05c.35-.03.59-.13.59-.3,0-.18-.08-.49-.22-.89l-.74-2.28ZM163.5,48.97c-.13.38-.12.4.35.4h2.06c.48,0,.52-.07.37-.52l-.9-2.73c-.13-.4-.28-.85-.39-1.05h-.03c-.05.08-.22.48-.4.99l-1.05,2.91Z"/>
      <path class="cls-4" d="M172.26,47.04c0-1.36-.04-1.6-.63-1.68l-.46-.06c-.1-.07-.1-.3.01-.36.8-.07,1.79-.12,3.2-.12.89,0,1.73.07,2.39.43.69.36,1.19,1,1.19,2.01,0,1.36-1.08,2.11-1.79,2.39-.07.09,0,.23.07.34,1.15,1.85,1.91,3,2.88,3.81.24.21.6.37.99.4.07.03.09.14.01.2-.13.05-.36.07-.63.07-1.22,0-1.95-.36-2.97-1.81-.37-.53-.96-1.52-1.4-2.16-.22-.32-.44-.46-1.02-.46-.64,0-.67.01-.67.32v1.81c0,1.5.03,1.68.86,1.79l.3.04c.09.07.06.32-.03.36-.65-.03-1.13-.04-1.71-.04-.6,0-1.12.01-1.79.04-.08-.04-.11-.26-.03-.36l.36-.04c.83-.1.86-.29.86-1.79v-5.15ZM173.44,49.09c0,.26,0,.41.04.47.04.04.26.07.99.07.52,0,1.06-.06,1.48-.37.39-.3.72-.8.72-1.78,0-1.13-.7-2.21-2.29-2.21-.89,0-.93.06-.93.46v3.36Z"/>
      <path class="cls-4" d="M184.95,52.19c0,1.5.03,1.71.86,1.79l.46.04c.08.06.06.32-.03.36-.82-.03-1.3-.04-1.88-.04s-1.08.01-1.99.04c-.08-.04-.11-.29,0-.36l.52-.04c.82-.07.89-.29.89-1.79v-6.41c0-.45,0-.46-.43-.46h-.79c-.61,0-1.4.03-1.76.36-.34.32-.49.63-.64.99-.11.09-.32.02-.37-.1.23-.64.44-1.56.55-2.14.04-.03.23-.04.27,0,.09.46.56.45,1.22.45h5.8c.77,0,.9-.03,1.12-.4.07-.03.23-.01.26.04-.16.59-.26,1.75-.22,2.18-.06.11-.3.11-.37.03-.04-.36-.14-.89-.36-1.05-.33-.24-.87-.36-1.66-.36h-1.02c-.43,0-.42.01-.42.49v6.38Z"/>
      <path class="cls-4" d="M192.34,54.57c-1.2,0-1.96-.37-2.23-.53-.17-.32-.36-1.33-.39-2.01.07-.1.29-.13.34-.04.21.73.8,2.13,2.47,2.13,1.2,0,1.79-.79,1.79-1.65,0-.63-.13-1.33-1.18-2.01l-1.36-.89c-.72-.47-1.55-1.29-1.55-2.47,0-1.36,1.06-2.47,2.92-2.47.44,0,.96.07,1.33.19.19.04.39.08.5.08.13.34.26,1.15.26,1.75-.06.09-.29.13-.36.04-.19-.69-.57-1.62-1.95-1.62s-1.7.93-1.7,1.59c0,.83.69,1.42,1.22,1.76l1.15.72c.9.56,1.79,1.39,1.79,2.75,0,1.58-1.19,2.65-3.05,2.65Z"/>
      <path class="cls-4" d="M203.36,45.78c0,.31-.24.57-.54.57-.26,0-.34-.17-.4-.43-.04-.19-.23-.42-.52-.42s-.59.13-.93.46c-.59.56-.72,1.35-.72,1.82,0,.29.03.5.08.62.19-.19.63-.5,1.18-.5.95,0,1.25.67,1.25,1.19,0,.76-.6,1.19-1.25,1.19-.72,0-1.22-.46-1.43-.95-.2.29-.37.75-.37,1.46,0,1.25.96,2.84,3.28,2.84.87,0,1.68-.29,2.25-.73.67-.52,1.34-1.55,1.34-2.65,0-.92-.23-1.41-.32-1.51-.08-.11-.37-.2-.95-.2s-1.06.32-1.06.97c0,.27.18.4.29.4s.16-.06.23-.19c.09-.13.17-.27.39-.27.26,0,.44.2.44.46,0,.39-.39.59-.78.59-.64,0-1.03-.52-1.03-1.03,0-.3.1-.64.37-.95.4-.47,1.15-.59,1.55-.59.29,0,.57.01,1.18.01.69,0,2.13-.01,2.13-1.52,0-.86-.74-1.16-1.1-1.16-.22,0-.29.2-.29.26,0,.07.03.13.14.21.11.09.3.21.3.47,0,.43-.32.6-.61.6-.4,0-.7-.33-.7-.75,0-.53.4-1.15,1.25-1.15.79,0,1.55.7,1.55,1.81,0,.64-.23,1.05-.59,1.39-.69.65-1.91.59-2.08.59-.16,0-.19.06-.13.24.04.13.39.83.39,1.68,0,1.91-1.68,3.9-4.21,3.9-3,0-3.85-2.08-3.85-3.48,0-.82.3-1.62.8-2.22-.07-.23-.13-.53-.13-.98,0-.73.26-1.5.72-2.06.49-.6,1.2-.9,1.75-.9.73,0,1.15.43,1.15.89ZM200.46,48.79c.14.5.52.92,1.09.92.37,0,.69-.23.69-.61,0-.36-.26-.76-.8-.76s-.91.36-.98.46Z"/>
      <path class="cls-4" d="M214.88,54.6c-1.41,0-2.29-.43-2.61-.62-.2-.37-.42-1.56-.45-2.34.08-.12.34-.15.4-.05.25.85.94,2.49,2.87,2.49,1.41,0,2.09-.92,2.09-1.92,0-.74-.15-1.56-1.37-2.34l-1.59-1.04c-.84-.55-1.8-1.51-1.8-2.88,0-1.59,1.24-2.88,3.41-2.88.52,0,1.12.08,1.56.22.22.05.45.1.58.1.15.4.3,1.34.3,2.04-.07.1-.33.15-.42.05-.22-.8-.67-1.89-2.27-1.89s-1.99,1.09-1.99,1.85c0,.97.8,1.66,1.42,2.06l1.34.84c1.05.65,2.09,1.62,2.09,3.21,0,1.84-1.39,3.09-3.56,3.09Z"/>
      <path class="cls-4" d="M221.74,45.87c1.05-.82,2.38-1.22,3.87-1.22.77,0,1.86.16,2.54.34.17.04.27.07.4.06.01.33.09,1.23.2,2.11-.07.1-.29.11-.39.03-.22-.98-.86-2.09-2.94-2.09-2.19,0-4.06,1.39-4.06,4.36s1.91,4.67,4.26,4.67c1.85,0,2.67-1.2,3-2.05.1-.07.32-.04.37.06-.1.75-.47,1.69-.69,1.97-.17.03-.34.08-.5.14-.32.12-1.35.33-2.26.33-1.29,0-2.52-.26-3.57-.96-1.15-.79-2.03-2.09-2.03-3.94,0-1.59.72-2.95,1.8-3.8Z"/>
      <path class="cls-4" d="M231.12,47.06c0-1.52-.03-1.76-.87-1.84l-.36-.03c-.09-.06-.06-.32.03-.36.72.03,1.2.04,1.81.04s1.06-.02,1.78-.04c.09.04.11.3.03.36l-.36.03c-.85.07-.87.32-.87,1.84v5.1c0,1.52.03,1.72.87,1.82l.36.04c.09.06.06.32-.03.36-.72-.03-1.2-.04-1.78-.04-.6,0-1.09.01-1.81.04-.09-.04-.11-.27-.03-.36l.36-.04c.85-.1.87-.3.87-1.82v-5.1Z"/>
      <path class="cls-4" d="M235.96,47.03c0-1.49-.03-1.7-.87-1.81l-.23-.03c-.09-.06-.06-.32.03-.36.62.03,1.1.04,1.69.04h2.69c.92,0,1.76,0,1.93-.04.09.24.17,1.28.23,1.91-.06.08-.29.11-.36.03-.21-.67-.34-1.18-1.09-1.36-.3-.07-.76-.09-1.39-.09h-1.03c-.43,0-.43.03-.43.57v2.87c0,.4.04.4.47.4h.83c.6,0,1.05-.03,1.22-.09.17-.06.27-.14.34-.5l.11-.59c.07-.08.32-.08.37.01,0,.34-.06.9-.06,1.45,0,.52.06,1.06.06,1.38-.06.1-.3.1-.37.01l-.13-.56c-.06-.26-.16-.47-.44-.55-.2-.06-.55-.07-1.11-.07h-.83c-.43,0-.47.01-.47.39v2.02c0,.76.04,1.25.27,1.49.17.17.47.33,1.73.33,1.1,0,1.52-.06,1.84-.21.26-.14.65-.65,1.02-1.39.1-.07.3-.03.36.1-.1.5-.46,1.6-.65,1.99-1.29-.03-2.57-.04-3.84-.04h-1.29c-.62,0-1.1.01-1.95.04-.09-.04-.11-.27-.03-.36l.47-.04c.82-.07.89-.29.89-1.79v-5.16Z"/>
      <path class="cls-4" d="M252.05,51.9c0,.43,0,2.13.04,2.51-.03.09-.11.16-.27.16-.17-.24-.59-.75-1.84-2.17l-3.32-3.78c-.39-.45-1.36-1.62-1.66-1.93h-.03c-.06.17-.07.5-.07.93v3.12c0,.67.03,2.54.26,2.97.1.16.37.24.73.27l.45.04c.09.12.07.29-.03.36-.64-.03-1.15-.04-1.68-.04-.6,0-.99.01-1.49.04-.1-.07-.11-.27-.03-.36l.39-.04c.33-.03.56-.13.63-.29.2-.52.19-2.26.19-2.95v-4.14c0-.4-.01-.7-.32-1.03-.2-.2-.54-.3-.89-.34l-.24-.03c-.09-.09-.09-.3.03-.36.6.04,1.36.04,1.62.04.23,0,.47-.02.66-.04.29.73,1.99,2.62,2.45,3.15l1.39,1.56c.97,1.12,1.69,1.91,2.36,2.59h.03c.06-.07.06-.3.06-.6v-3.07c0-.67-.01-2.54-.29-2.97-.09-.13-.32-.21-.89-.29l-.24-.03c-.1-.09-.09-.32.03-.36.66.03,1.15.04,1.69.04.61,0,.99-.02,1.48-.04.11.07.11.27.03.36l-.2.03c-.46.07-.75.19-.8.3-.24.52-.22,2.29-.22,2.95v3.43Z"/>
      <path class="cls-4" d="M255.39,45.87c1.05-.82,2.38-1.22,3.87-1.22.78,0,1.86.16,2.54.34.17.04.27.07.4.06.02.33.09,1.23.2,2.11-.07.1-.29.11-.39.03-.22-.98-.86-2.09-2.94-2.09-2.19,0-4.06,1.39-4.06,4.36s1.91,4.67,4.26,4.67c1.85,0,2.67-1.2,3-2.05.1-.07.32-.04.37.06-.1.75-.47,1.69-.69,1.97-.17.03-.34.08-.5.14-.32.12-1.35.33-2.27.33-1.29,0-2.52-.26-3.57-.96-1.15-.79-2.04-2.09-2.04-3.94,0-1.59.72-2.95,1.81-3.8Z"/>
      <path class="cls-4" d="M264.76,47.03c0-1.49-.03-1.7-.87-1.81l-.23-.03c-.09-.06-.06-.32.03-.36.62.03,1.1.04,1.69.04h2.69c.92,0,1.76,0,1.94-.04.08.24.17,1.28.23,1.91-.06.08-.29.11-.36.03-.22-.67-.34-1.18-1.09-1.36-.3-.07-.76-.09-1.39-.09h-1.03c-.43,0-.43.03-.43.57v2.87c0,.4.04.4.47.4h.83c.6,0,1.05-.03,1.22-.09.17-.06.27-.14.34-.5l.11-.59c.07-.08.32-.08.37.01,0,.34-.06.9-.06,1.45,0,.52.06,1.06.06,1.38-.06.1-.3.1-.37.01l-.13-.56c-.06-.26-.16-.47-.44-.55-.2-.06-.55-.07-1.1-.07h-.83c-.43,0-.47.01-.47.39v2.02c0,.76.04,1.25.28,1.49.17.17.47.33,1.73.33,1.1,0,1.52-.06,1.84-.21.26-.14.65-.65,1.02-1.39.1-.07.3-.03.36.1-.1.5-.46,1.6-.65,1.99-1.29-.03-2.57-.04-3.84-.04h-1.29c-.62,0-1.1.01-1.95.04-.09-.04-.11-.27-.03-.36l.47-.04c.82-.07.89-.29.89-1.79v-5.16Z"/>
      <path class="cls-4" d="M274.51,54.57c-1.2,0-1.96-.37-2.24-.53-.17-.32-.36-1.33-.39-2.01.07-.1.29-.13.34-.04.21.73.8,2.13,2.47,2.13,1.21,0,1.79-.79,1.79-1.65,0-.63-.13-1.33-1.17-2.01l-1.36-.89c-.72-.47-1.55-1.29-1.55-2.47,0-1.36,1.06-2.47,2.92-2.47.44,0,.96.07,1.34.19.19.04.39.08.5.08.13.34.26,1.15.26,1.75-.06.09-.29.13-.36.04-.19-.69-.58-1.62-1.95-1.62s-1.71.93-1.71,1.59c0,.83.69,1.42,1.22,1.76l1.15.72c.9.56,1.79,1.39,1.79,2.75,0,1.58-1.19,2.65-3.05,2.65Z"/>
    </g>
    <g>
      <path class="cls-4" d="M298.04,50.58c-.11-.36-.18-.41-.67-.41h-2.47c-.41,0-.51.05-.62.39l-.57,1.72c-.24.74-.36,1.18-.36,1.36,0,.2.08.3.47.33l.54.05c.11.08.11.34-.03.41-.43-.03-.93-.03-1.7-.05-.54,0-1.13.03-1.57.05-.1-.06-.13-.33-.04-.41l.54-.05c.39-.03.75-.21.98-.8.29-.75.75-1.82,1.44-3.65l1.67-4.42c.23-.59.33-.9.28-1.16.39-.11.67-.41.85-.62.1,0,.21.03.24.15.21.72.48,1.47.72,2.19l2.24,6.58c.48,1.41.69,1.65,1.39,1.73l.44.05c.11.08.08.34,0,.41-.67-.03-1.24-.05-1.98-.05-.79,0-1.41.03-1.88.05-.13-.06-.15-.33-.03-.41l.48-.05c.34-.03.57-.13.57-.3,0-.18-.08-.47-.21-.87l-.72-2.23ZM294.8,49.12c-.13.38-.11.39.34.39h2.01c.47,0,.51-.06.36-.51l-.89-2.67c-.13-.39-.28-.83-.38-1.03h-.03c-.05.08-.21.47-.39.97l-1.03,2.85Z"/>
      <path class="cls-4" d="M307.02,50.63c.32.66.63,1.3.97,1.92h.03c.38-.66.73-1.39,1.08-2.1l1.32-2.68c.64-1.28,1.04-2.05,1.07-2.69.48.04.77.04,1.05.04.35,0,.81-.01,1.25-.04.09.06.09.29.02.35l-.3.03c-.88.1-.99.35-.98,1.33.03,1.49.04,4.08.15,6.1.04.7.03,1.07.69,1.14l.45.04c.08.08.07.3-.03.35-.58-.03-1.15-.04-1.65-.04s-1.12.01-1.7.04c-.1-.07-.11-.27-.03-.35l.41-.04c.69-.07.69-.3.69-1.19l-.04-5.85h-.02c-.1.15-.63,1.28-.91,1.82l-1.25,2.45c-.63,1.23-1.26,2.55-1.52,3.2-.03.04-.08.06-.14.06-.03,0-.1-.01-.13-.06-.24-.74-.91-2.11-1.23-2.8l-1.26-2.71c-.3-.65-.59-1.37-.9-2.02h-.03c-.05.87-.09,1.68-.14,2.5-.04.85-.1,2.1-.1,3.29,0,1.04.09,1.26.63,1.3l.53.04c.1.08.08.31-.01.35-.48-.03-1.03-.04-1.56-.04-.45,0-.95.01-1.43.04-.08-.07-.11-.28-.03-.35l.31-.04c.59-.07.79-.17.87-1.15.09-.92.15-1.7.24-3.08.07-1.16.13-2.35.15-3.13.03-.88-.09-1.07-.94-1.21l-.22-.03c-.07-.08-.06-.29.06-.35.42.03.76.04,1.11.04.32,0,.7,0,1.16-.04-.06.54.3,1.41.73,2.31l1.6,3.24Z"/>
      <path class="cls-4" d="M316.15,47.23c0-1.46-.03-1.67-.85-1.77l-.22-.03c-.09-.06-.06-.31.03-.35.6.03,1.08.04,1.65.04h2.63c.9,0,1.72,0,1.89-.04.08.24.17,1.25.22,1.86-.06.08-.28.11-.35.03-.21-.66-.34-1.15-1.07-1.33-.3-.07-.74-.08-1.36-.08h-1.01c-.42,0-.42.03-.42.56v2.8c0,.39.04.39.46.39h.82c.59,0,1.02-.03,1.19-.08.17-.06.27-.14.34-.49l.11-.58c.07-.08.31-.08.37.01,0,.34-.06.88-.06,1.42,0,.5.06,1.04.06,1.35-.06.1-.3.1-.37.01l-.13-.55c-.06-.25-.15-.46-.43-.53-.2-.06-.53-.07-1.08-.07h-.82c-.42,0-.46.02-.46.38v1.98c0,.74.04,1.22.27,1.46.17.17.46.32,1.7.32,1.08,0,1.49-.06,1.8-.21.25-.14.63-.63,1-1.36.1-.07.29-.03.35.1-.1.49-.45,1.57-.63,1.95-1.26-.03-2.51-.04-3.76-.04h-1.26c-.6,0-1.08.01-1.91.04-.08-.04-.11-.27-.03-.35l.46-.04c.8-.07.87-.28.87-1.75v-5.05Z"/>
      <path class="cls-4" d="M324.34,47.24c0-1.33-.04-1.57-.61-1.64l-.45-.06c-.1-.07-.1-.29.01-.35.78-.07,1.75-.11,3.12-.11.87,0,1.7.07,2.34.42.67.35,1.16.98,1.16,1.96,0,1.33-1.05,2.06-1.75,2.34-.07.08,0,.22.07.34,1.12,1.81,1.86,2.93,2.82,3.73.24.21.59.36.96.39.07.03.09.14.02.2-.13.04-.35.07-.62.07-1.19,0-1.91-.35-2.9-1.77-.37-.52-.94-1.49-1.38-2.12-.21-.31-.43-.45-.99-.45-.63,0-.66.01-.66.31v1.77c0,1.47.03,1.64.84,1.75l.29.04c.09.07.06.31-.03.35-.63-.03-1.11-.04-1.67-.04-.59,0-1.09.01-1.75.04-.09-.04-.11-.25-.03-.35l.35-.04c.81-.1.84-.28.84-1.75v-5.03ZM325.49,49.25c0,.25,0,.41.04.46.04.04.25.07.97.07.5,0,1.04-.06,1.45-.37.38-.3.7-.78.7-1.74,0-1.11-.69-2.16-2.24-2.16-.87,0-.91.06-.91.45v3.28Z"/>
      <path class="cls-4" d="M333.39,47.26c0-1.49-.03-1.73-.85-1.8l-.35-.03c-.09-.06-.06-.31.03-.35.7.03,1.18.04,1.77.04.56,0,1.04-.01,1.74-.04.08.04.11.29.03.35l-.35.03c-.83.07-.85.31-.85,1.8v4.99c0,1.48.03,1.68.85,1.78l.35.04c.08.06.06.31-.03.35-.7-.03-1.18-.04-1.74-.04-.59,0-1.07.01-1.77.04-.08-.04-.11-.27-.03-.35l.35-.04c.83-.1.85-.3.85-1.78v-4.99Z"/>
      <path class="cls-4" d="M338.72,46.09c1.02-.8,2.33-1.19,3.79-1.19.76,0,1.82.16,2.48.34.17.04.27.07.39.06.01.32.08,1.2.2,2.06-.07.1-.28.11-.38.03-.21-.95-.84-2.05-2.87-2.05-2.14,0-3.97,1.36-3.97,4.26s1.87,4.57,4.16,4.57c1.81,0,2.61-1.18,2.93-2,.1-.07.31-.04.36.06-.1.73-.46,1.66-.67,1.92-.17.03-.34.08-.49.14-.31.11-1.32.32-2.21.32-1.26,0-2.47-.25-3.49-.94-1.12-.77-1.99-2.05-1.99-3.86,0-1.56.7-2.89,1.77-3.71Z"/>
      <path class="cls-4" d="M351.8,51.13c-.1-.31-.15-.35-.57-.35h-2.12c-.35,0-.43.04-.53.33l-.49,1.47c-.21.63-.31,1.01-.31,1.16,0,.17.07.25.41.28l.46.04c.1.07.1.3-.03.35-.36-.03-.8-.03-1.46-.04-.46,0-.97.03-1.35.04-.08-.06-.11-.28-.02-.35l.46-.04c.33-.03.65-.18.84-.69.25-.64.65-1.56,1.23-3.13l1.43-3.79c.2-.5.28-.77.24-1,.34-.1.58-.35.73-.53.08,0,.18.03.21.13.18.62.41,1.26.61,1.88l1.93,5.64c.4,1.2.59,1.41,1.19,1.48l.38.04c.09.07.07.3,0,.35-.58-.03-1.07-.04-1.7-.04-.67,0-1.2.03-1.61.04-.11-.06-.13-.28-.03-.35l.41-.04c.29-.03.49-.11.49-.25,0-.15-.07-.41-.18-.74l-.62-1.91ZM349.03,49.88c-.11.32-.1.33.3.33h1.72c.41,0,.43-.06.31-.43l-.76-2.29c-.11-.34-.24-.71-.32-.88h-.03c-.04.07-.18.41-.33.83l-.88,2.44Z"/>
      <path class="cls-4" d="M364.17,51.99c0,.42,0,2.09.04,2.45-.03.08-.11.15-.27.15-.17-.24-.58-.73-1.8-2.11l-3.25-3.7c-.38-.44-1.33-1.58-1.63-1.89h-.03c-.06.17-.07.49-.07.91v3.06c0,.66.03,2.48.25,2.9.1.15.36.24.72.27l.43.04c.09.11.07.28-.03.35-.63-.03-1.12-.04-1.64-.04-.59,0-.97.01-1.46.04-.1-.07-.11-.27-.03-.35l.38-.04c.32-.03.55-.13.61-.28.2-.5.18-2.22.18-2.89v-4.05c0-.39-.02-.69-.31-1.01-.2-.2-.53-.3-.87-.34l-.24-.03c-.08-.08-.08-.29.03-.35.59.04,1.33.04,1.59.04.22,0,.46-.01.64-.04.28.71,1.95,2.56,2.4,3.08l1.36,1.53c.95,1.09,1.65,1.86,2.31,2.54h.03c.06-.07.06-.3.06-.59v-3c0-.66-.01-2.48-.28-2.9-.08-.13-.31-.21-.87-.28l-.24-.03c-.1-.08-.09-.31.02-.35.65.03,1.12.04,1.66.04.6,0,.97-.01,1.44-.04.11.07.11.26.03.35l-.2.03c-.45.07-.73.18-.79.3-.24.5-.21,2.24-.21,2.89v3.35Z"/>
      <path class="cls-4" d="M379.22,47.69c0-1.02-.03-2.9-.31-3.39-.12-.2-.41-.31-.82-.34l-.41-.03c-.1-.11-.07-.33.03-.39.62.03,1.22.05,1.86.05.69,0,1.13-.02,1.72-.05.13.08.11.3.03.39l-.4.03c-.41.03-.73.18-.81.39-.25.54-.23,2.42-.23,3.34v1.85c0,1.42-.23,2.93-1.14,3.91-.7.77-1.91,1.19-3.13,1.19-1.13,0-2.26-.21-3.06-.9-.87-.72-1.28-1.91-1.28-3.86v-3.86c0-1.7-.03-1.98-.98-2.06l-.41-.03c-.1-.06-.06-.34.03-.39.82.03,1.37.05,2.03.05s1.21-.02,2.01-.05c.1.05.13.33.03.39l-.39.03c-.95.08-.98.36-.98,2.06v3.53c0,2.64.82,4.37,3.32,4.37,2.37,0,3.27-1.87,3.27-4.35v-1.88Z"/>
      <path class="cls-4" d="M390.09,51.99c0,.42,0,2.09.04,2.45-.03.08-.11.15-.27.15-.17-.24-.58-.73-1.8-2.11l-3.25-3.7c-.38-.44-1.34-1.58-1.63-1.89h-.03c-.06.17-.07.49-.07.91v3.06c0,.66.03,2.48.25,2.9.1.15.36.24.71.27l.43.04c.08.11.07.28-.03.35-.63-.03-1.12-.04-1.64-.04-.59,0-.97.01-1.46.04-.1-.07-.11-.27-.03-.35l.38-.04c.32-.03.55-.13.62-.28.2-.5.19-2.22.19-2.89v-4.05c0-.39-.02-.69-.31-1.01-.2-.2-.53-.3-.87-.34l-.24-.03c-.08-.08-.08-.29.03-.35.59.04,1.33.04,1.59.04.22,0,.46-.01.64-.04.28.71,1.95,2.56,2.4,3.08l1.36,1.53c.95,1.09,1.66,1.86,2.32,2.54h.03c.06-.07.06-.3.06-.59v-3c0-.66-.01-2.48-.28-2.9-.08-.13-.31-.21-.87-.28l-.24-.03c-.1-.08-.08-.31.03-.35.65.03,1.12.04,1.66.04.6,0,.97-.01,1.44-.04.11.07.11.26.03.35l-.2.03c-.45.07-.73.18-.79.3-.24.5-.21,2.24-.21,2.89v3.35Z"/>
      <path class="cls-4" d="M393.53,47.26c0-1.49-.03-1.73-.86-1.8l-.35-.03c-.08-.06-.06-.31.03-.35.7.03,1.18.04,1.77.04s1.04-.01,1.74-.04c.08.04.11.29.03.35l-.35.03c-.83.07-.86.31-.86,1.8v4.99c0,1.48.03,1.68.86,1.78l.35.04c.09.06.06.31-.03.35-.7-.03-1.18-.04-1.74-.04-.59,0-1.07.01-1.77.04-.08-.04-.11-.27-.03-.35l.35-.04c.83-.1.86-.3.86-1.78v-4.99Z"/>
      <path class="cls-4" d="M397.88,46.61c-.32-.79-.53-1.08-1.14-1.15l-.25-.03c-.1-.08-.08-.28.03-.35.41.03.85.04,1.46.04s1.11-.01,1.7-.04c.1.06.13.26.03.35l-.21.03c-.53.07-.65.15-.66.27.03.14.27.9.7,1.96.64,1.63,1.29,3.24,1.99,4.84.43-.93,1.04-2.37,1.34-3.11.42-.95,1.07-2.54,1.31-3.14.11-.3.13-.45.13-.55s-.14-.21-.63-.27l-.25-.03c-.1-.08-.07-.29.03-.35.39.03.92.04,1.46.04.46,0,.9-.01,1.36-.04.1.06.1.28.02.35l-.42.03c-.34.03-.55.2-.73.49-.39.66-.94,1.8-1.57,3.23l-.76,1.72c-.56,1.29-1.22,2.92-1.46,3.66-.04.03-.1.04-.15.04-.07,0-.14-.01-.21-.04-.15-.59-.39-1.27-.64-1.86l-2.47-6.09Z"/>
      <path class="cls-4" d="M407.75,47.23c0-1.46-.03-1.67-.85-1.77l-.22-.03c-.09-.06-.06-.31.03-.35.61.03,1.08.04,1.66.04h2.64c.9,0,1.72,0,1.89-.04.09.24.17,1.25.23,1.86-.06.08-.28.11-.35.03-.21-.66-.34-1.15-1.07-1.33-.29-.07-.74-.08-1.36-.08h-1.01c-.42,0-.42.03-.42.56v2.8c0,.39.04.39.46.39h.81c.59,0,1.02-.03,1.19-.08.17-.06.26-.14.34-.49l.11-.58c.07-.08.31-.08.37.01,0,.34-.05.88-.05,1.42,0,.5.05,1.04.05,1.35-.05.1-.29.1-.37.01l-.13-.55c-.06-.25-.15-.46-.43-.53-.19-.06-.53-.07-1.08-.07h-.81c-.42,0-.46.02-.46.38v1.98c0,.74.04,1.22.27,1.46.17.17.46.32,1.7.32,1.08,0,1.48-.06,1.8-.21.25-.14.63-.63.99-1.36.1-.07.3-.03.35.1-.1.49-.45,1.57-.63,1.95-1.26-.03-2.51-.04-3.76-.04h-1.26c-.6,0-1.08.01-1.91.04-.08-.04-.11-.27-.03-.35l.46-.04c.8-.07.87-.28.87-1.75v-5.05Z"/>
      <path class="cls-4" d="M415.94,47.24c0-1.33-.04-1.57-.62-1.64l-.45-.06c-.1-.07-.1-.29.01-.35.78-.07,1.75-.11,3.13-.11.87,0,1.69.07,2.34.42.67.35,1.16.98,1.16,1.96,0,1.33-1.06,2.06-1.75,2.34-.07.08,0,.22.07.34,1.12,1.81,1.87,2.93,2.82,3.73.24.21.59.36.96.39.07.03.08.14.02.2-.13.04-.35.07-.62.07-1.19,0-1.91-.35-2.91-1.77-.36-.52-.94-1.49-1.37-2.12-.21-.31-.43-.45-.99-.45-.63,0-.66.01-.66.31v1.77c0,1.47.03,1.64.84,1.75l.3.04c.08.07.06.31-.03.35-.63-.03-1.11-.04-1.67-.04-.59,0-1.09.01-1.75.04-.08-.04-.11-.25-.03-.35l.35-.04c.81-.1.84-.28.84-1.75v-5.03ZM417.09,49.25c0,.25,0,.41.04.46.04.04.25.07.97.07.5,0,1.04-.06,1.44-.37.38-.3.7-.78.7-1.74,0-1.11-.69-2.16-2.24-2.16-.87,0-.91.06-.91.45v3.28Z"/>
      <path class="cls-4" d="M426.33,54.6c-1.18,0-1.92-.36-2.19-.52-.17-.31-.35-1.3-.37-1.96.07-.1.28-.13.33-.04.21.71.78,2.09,2.41,2.09,1.18,0,1.75-.77,1.75-1.61,0-.62-.13-1.3-1.15-1.96l-1.33-.87c-.7-.46-1.51-1.26-1.51-2.41,0-1.33,1.04-2.41,2.86-2.41.43,0,.94.07,1.3.18.18.04.38.08.49.08.13.33.25,1.12.25,1.71-.06.08-.28.13-.35.04-.18-.67-.56-1.58-1.91-1.58s-1.67.91-1.67,1.56c0,.81.67,1.39,1.19,1.72l1.12.7c.88.55,1.75,1.36,1.75,2.69,0,1.54-1.16,2.59-2.99,2.59Z"/>
      <path class="cls-4" d="M431.85,47.26c0-1.49-.03-1.73-.86-1.8l-.35-.03c-.08-.06-.05-.31.03-.35.7.03,1.18.04,1.77.04s1.04-.01,1.74-.04c.08.04.11.29.03.35l-.35.03c-.83.07-.86.31-.86,1.8v4.99c0,1.48.03,1.68.86,1.78l.35.04c.08.06.06.31-.03.35-.71-.03-1.18-.04-1.74-.04s-1.07.01-1.77.04c-.08-.04-.11-.27-.03-.35l.35-.04c.83-.1.86-.3.86-1.78v-4.99Z"/>
      <path class="cls-4" d="M439.95,52.28c0,1.47.02,1.67.84,1.75l.45.04c.08.06.06.31-.03.35-.8-.03-1.28-.04-1.84-.04s-1.06.01-1.95.04c-.08-.04-.11-.28,0-.35l.51-.04c.8-.07.87-.28.87-1.75v-6.27c0-.43,0-.45-.42-.45h-.77c-.6,0-1.37.03-1.72.35-.33.31-.48.62-.63.97-.11.08-.31.02-.36-.1.22-.63.43-1.53.53-2.09.04-.03.23-.04.27,0,.08.45.54.44,1.19.44h5.67c.76,0,.89-.03,1.1-.39.07-.03.22-.01.25.04-.16.57-.25,1.71-.21,2.13-.06.11-.3.11-.37.03-.04-.35-.14-.87-.35-1.02-.32-.24-.86-.35-1.63-.35h-1c-.42,0-.4.01-.4.48v6.24Z"/>
      <path class="cls-4" d="M448.75,52.25c0,1.5.08,1.72.85,1.78l.53.04c.09.08.06.31-.03.35-.87-.03-1.35-.04-1.91-.04-.59,0-1.09.01-1.84.04-.08-.04-.11-.27-.03-.35l.44-.04c.81-.08.84-.28.84-1.78v-.72c0-.77-.04-.95-.45-1.74l-1.65-3.23c-.48-.93-.69-.99-1.11-1.07l-.39-.07c-.09-.1-.07-.29.03-.35.45.03.95.04,1.63.04s1.15-.01,1.5-.04c.12.04.12.26.04.35l-.18.03c-.49.08-.59.14-.59.25,0,.14.37.94.44,1.08.52,1.04,1.03,2.15,1.58,3.11.43-.74.9-1.56,1.32-2.37.39-.73.91-1.68.91-1.85,0-.08-.25-.18-.59-.22l-.25-.03c-.1-.1-.08-.29.03-.35.5.03.91.04,1.34.04s.83-.01,1.3-.04c.11.07.13.26.03.35l-.39.07c-.73.11-1.15,1.01-1.85,2.22l-.88,1.53c-.63,1.05-.66,1.19-.66,2.27v.73Z"/>
    </g>
    <path class="cls-4" d="M287.27,49.76c0,.94-.75,1.66-1.67,1.66s-1.67-.72-1.67-1.66.74-1.67,1.67-1.67,1.67.73,1.67,1.67Z"/>
  </g>
  <g>
    <rect class="cls-3" width="58.06" height="59.51"/>
    <polygon class="cls-1" points="29.22 4.08 54 4.08 53.83 55.72 29.22 55.76 29.22 4.08"/>
    <polygon class="cls-2" points="32.14 55.76 4.18 55.76 4.18 4.05 29.25 4.05 29.25 52.56 32.14 55.76"/>
    <g>
      <path class="cls-3" d="M21.78,26.97c.15.02.78.13.92.15s.28.05.41.08.26.06.38.08.24.06.36.09.22.06.33.1.21.07.31.1.19.07.28.11.18.08.26.12.16.08.24.13.15.09.22.13.14.09.2.14.12.1.18.15.11.11.16.16.1.11.15.17.09.12.13.18.08.13.12.2.07.14.1.21.06.14.09.22.05.15.08.23.05.16.07.25.04.17.06.26.03.18.05.28.03.19.04.29.02.2.03.31.02.21.03.32.02.22.02.34.01.23.02.36.01.25.02.37,0,.26.01.39,0,.27.01.41,0,.28.01.43v10.14c0,.11,0,.23,0,.36s0,.26,0,.39,0,.28-.01.43,0,.3,0,.45,0,.32,0,.48,0,.33,0,.5,0,.35,0,.52.01.36.02.54.02.37.04.55.03.38.06.56.05.38.08.57.06.38.1.58.08.39.13.58.1.39.16.58.12.38.19.57.14.38.23.57.17.37.27.55.2.36.31.54.23.35.35.52.26.34.4.5.29.33.45.48.33.31.5.46.6.5.8.64c0,0,15.3-.03,15.23-.03.16-.11.32-.21.47-.33s.3-.23.44-.35.28-.24.41-.37.26-.26.38-.39.24-.27.35-.41.22-.28.32-.42.2-.29.29-.44.18-.3.27-.45.17-.31.24-.47.15-.32.22-.48.14-.33.2-.49.12-.33.18-.5.11-.34.15-.51.09-.35.13-.52.08-.35.12-.53.07-.35.1-.53.06-.36.08-.54.04-.36.06-.54.03-.36.05-.55.02-.36.03-.55.01-.37.02-.55v-.31s.02-.31.02-.31v-.31s.02-.31.02-.31v-.31s.02-.31.02-.31v-.31s.02-.31.02-.31v-.31s.02-.31.02-.31v-.31s.02-.31.02-.31v-.31s.02-.31.02-.31v-.31s.02-.31.02-.31v-.31s.02-.31.02-.31v-.31s.02-.31.02-.31v-.31s.02-.31.02-.31v-.31s.02-.31.02-.31v-.31s.02-.31.02-.31v-.31s.02-.31.02-.31v-.31s.02-.31.02-.31v-.31s.02-.31.02-.31c0-.19.01-.37.02-.55s.01-.36.02-.53.01-.34.02-.51.01-.33.02-.49.02-.32.02-.47.02-.31.03-.45.02-.29.03-.43.02-.28.04-.42.03-.27.04-.4.03-.26.05-.38.04-.24.06-.36.04-.23.06-.34.05-.22.07-.33.05-.21.08-.31.06-.2.09-.29.07-.19.1-.28.07-.18.11-.26.08-.17.12-.25.09-.16.14-.23.1-.15.15-.21.11-.14.16-.2.12-.13.18-.18.12-.12.19-.17.13-.11.21-.16.15-.1.22-.14.16-.09.24-.13.17-.08.26-.11.07-.02.16-.05c0,0,.01-.1,0-.19s0-.18,0-.3,0-.26,0-.35c0-.1,0-.17,0-.17h-.36s-.44.01-.44.01h-10.15v.68c.19.02.37.04.54.06s.35.05.51.07.33.06.48.09.31.06.45.1.29.07.42.11.27.08.39.12.25.09.37.14.23.1.34.15.22.11.32.16.2.12.29.18.18.13.27.19.17.13.25.21.15.14.23.22.14.15.21.23.13.16.19.25.12.17.17.26.1.18.15.28.09.19.13.29.08.2.12.31.07.21.1.33.06.23.09.34.05.24.08.36.05.25.07.37.04.26.06.39.03.27.05.41.03.28.04.42.02.29.03.44.01.3.02.46.01.31.01.48,0,.33,0,.49,0,.34,0,.51,0,.35,0,.53v4.75c0,.17,0,.35,0,.53s0,.36,0,.55,0,.37,0,.57,0,.39,0,.58,0,.39,0,.59,0,.4,0,.6,0,.41,0,.61,0,.41-.02.62-.02.41-.03.62-.03.41-.04.62-.03.41-.06.62-.05.41-.07.62-.06.41-.09.61-.07.4-.11.6-.09.39-.14.59-.1.39-.16.57-.12.38-.19.56-.14.36-.22.54-.16.35-.25.52-.18.33-.28.5-.2.32-.32.47-.23.3-.35.44-.25.28-.39.41-.28.26-.43.38-.31.23-.48.34-.34.21-.52.3-.37.18-.57.26-.4.16-.62.22-.44.13-.67.18-.47.09-.72.13-.51.06-.78.08-.55.03-.83.03c-.36,0-.72-.01-1.06-.03s-.67-.05-.98-.1-.62-.1-.91-.16-.57-.13-.84-.21-.53-.17-.78-.27-.49-.2-.71-.31-.45-.23-.65-.36-.41-.26-.6-.4-.37-.28-.54-.43-.33-.3-.49-.46-.3-.32-.44-.49-.27-.34-.39-.51-.24-.35-.35-.53-.21-.36-.3-.55-.18-.37-.26-.56-.16-.38-.23-.57-.13-.38-.19-.57-.11-.38-.16-.57-.09-.38-.13-.56-.07-.37-.11-.55-.06-.36-.08-.54-.04-.35-.06-.52-.03-.34-.04-.5-.02-.32-.03-.47-.01-.3-.01-.44,0-.28,0-.41,0-.25,0-.37,0-.22,0-.32,0-.19.01-.28,0-.16.01-.23,0-.12,0-.17,0-.08,0-.11v-9.28c0-.16,0-.31,0-.46s0-.29,0-.43,0-.28.01-.41,0-.26.02-.39.01-.25.02-.37.02-.23.03-.35.02-.22.04-.33.03-.21.05-.31.04-.2.06-.29.04-.19.07-.27.05-.17.08-.26.06-.16.09-.24.07-.15.1-.23.08-.14.12-.21.09-.13.13-.2.1-.13.15-.19.11-.12.16-.17.12-.11.18-.16.13-.1.2-.15.14-.1.22-.14.16-.09.24-.13.17-.08.26-.12.18-.08.28-.12.2-.07.3-.11.21-.07.33-.1.23-.07.35-.1.24-.06.37-.09.26-.06.4-.09.28-.06.42-.09.3-.06.45-.08.32-.05.48-.08.33-.05.51-.08v-.68h-14.92"/>
      <path class="cls-3" d="M49.46,37.97c-.13-.03-.33-.1-.45-.14s-.24-.08-.35-.13-.23-.09-.34-.14-.22-.1-.32-.16-.21-.11-.3-.17-.2-.12-.29-.18-.19-.13-.28-.2-.18-.14-.26-.21-.17-.15-.25-.22-.16-.16-.24-.24-.15-.16-.23-.25-.15-.17-.22-.26-.14-.18-.21-.27-.13-.18-.2-.28-.13-.19-.19-.29-.12-.2-.18-.3-.12-.2-.18-.31-.11-.21-.17-.32-.11-.21-.16-.32-.11-.22-.16-.33-.1-.22-.15-.34-.1-.23-.15-.35-.1-.23-.15-.35-.1-.24-.15-.36-.1-.24-.14-.36-.1-.24-.14-.37-.1-.25-.14-.37-.1-.25-.14-.37-.1-.25-.15-.38l-.37-.94-.37-.94-.37-.94-.37-.94-.37-.94-.37-.94-.37-.94-.37-.94-.37-.94-.37-.94-.37-.94-.37-.94-.37-.94-.37-.94-.37-.94-.37-.94-.37-.94-.37-.94-.37-.94-.37-.94-.37-.94-.37-.94-.37-.94-.37-.94-.37-.94-.37-.94-.37-.94-.27-.65c.08,0-3.94.01-3.94.01l-.25.7-.31.79-.31.79-.31.79-.31.79-.31.79-.31.79-.31.79-.31.79-.31.79-.31.79-.31.79-.31.79-.31.79-.31.79-.31.79-.31.79-.31.79-.31.79-.31.79-.31.79-.31.79-.31.79-.31.79-.31.79-.31.79-.31.79c-.1.25-.2.5-.3.74s-.2.49-.29.72-.19.47-.28.7-.18.46-.27.68-.18.44-.27.66-.18.43-.26.64-.17.41-.26.61-.17.4-.26.59-.17.38-.25.57-.17.37-.25.55-.17.35-.25.53-.17.34-.25.5-.17.33-.25.48-.17.31-.25.46-.17.3-.26.44-.17.28-.26.42-.18.27-.27.39-.18.25-.27.37-.18.24-.28.35-.19.22-.29.33-.19.21-.29.3-.2.19-.3.28-.21.18-.31.26-.22.16-.33.24-.22.15-.34.21-.23.13-.35.19-.24.12-.37.17-.25.1-.38.15-.26.09-.4.12-.27.07-.41.1-.29.05-.43.08-.3.04-.45.05v.83h14.77v-.83c-.25-.04-.49-.08-.72-.12s-.46-.08-.67-.12-.42-.08-.62-.13-.39-.09-.57-.14-.36-.1-.52-.15-.33-.1-.48-.16-.3-.11-.43-.17-.26-.12-.39-.19-.24-.13-.34-.2-.21-.15-.3-.22-.18-.16-.26-.24-.15-.17-.22-.26-.12-.19-.18-.29-.1-.2-.14-.31-.07-.22-.1-.34-.05-.24-.06-.37-.02-.26-.02-.4,0-.28.01-.43.03-.3.05-.46.05-.32.08-.5.07-.35.11-.53.09-.37.14-.57.11-.4.18-.61.13-.43.21-.65.15-.45.23-.69.17-.48.26-.74.19-.51.29-.78.21-.55.32-.83.29-.61.41-.91.17-.59.3-.91.26-.65.39-.98.27-.68.41-1.04l.19-.49.19-.49.19-.49.19-.49.19-.49.19-.49.19-.49.19-.49.19-.49.19-.49.19-.49.19-.49.19-.49.19-.49.19-.49.19-.49.19-.49.19-.49.19-.49.19-.49.19-.49.19-.49.19-.49.19-.49.19-.49.19-.49.19-.49.19-.49.19-.49.19-.49.19-.49.19-.49.26.67.26.67.26.67.26.67.26.67.26.67.26.67.26.67.26.67.26.67.26.67.26.67.26.67.26.67.26.67.26.67.26.67.26.67.26.67.26.67.26.67.26.67.26.67.26.67.26.67.26.67.26.67.26.67.26.67.26.67.26.67.26.67c.04.11.09.22.13.33s.09.22.13.34.09.23.14.34.09.23.14.34.09.23.14.34.09.23.13.35.08.23.13.35.08.23.12.35.07.23.11.34.07.23.1.34.06.23.08.34.05.22.07.34.04.22.05.33.02.22.03.33,0,.21,0,.32,0,.21-.02.31-.02.2-.04.3-.04.2-.07.3-.06.19-.1.29-.08.19-.13.28-.1.18-.16.26-.13.17-.2.25-.15.16-.24.24-.18.15-.28.22-.2.14-.32.21-.23.13-.36.19-.26.12-.41.18-.29.11-.45.16-.33.1-.5.14-.36.09-.56.12-.4.07-.61.1-.43.06-.66.08v.83h15.45s.03-1.03.02-1.03Z"/>
    </g>
  </g>
</svg>