<?xml version="1.0" encoding="utf-8"?>
<!-- Generator: Adobe Illustrator 26.0.3, SVG Export Plug-In . SVG Version: 6.00 Build 0)  -->
<svg version="1.1" id="Layer_1" xmlns="http://www.w3.org/2000/svg" xmlns:xlink="http://www.w3.org/1999/xlink" x="0px" y="0px"
	 viewBox="0 0 750 750" style="enable-background:new 0 0 750 750;" xml:space="preserve">
<style type="text/css">
	.st0{fill:#4E8753;}
	.st1{fill:#97CD57;}
	.st2{fill:#4F8854;}
	.st3{fill:#528A57;}
	.st4{fill:#518956;}
	.st5{fill:#538B58;}
	.st6{fill:#538D52;}
	.st7{fill:#4D8752;}
	.st8{fill:none;}
</style>
<g>
	<path class="st0" d="M508.1,279.6c1.1-1.2,2.6-2.2,3.3-3.6c16.5-31,33.1-62.2,36-98c1.6-19.2,1.3-38.6,2.2-57.9
		c0.3-7.1,1.6-14.2,3.3-21.6c5.7,8,3.9,23.4,21.6,18.4c-0.2,28.1,3.4,56-2.1,83c-5.5,26.6-14.9,52.4-23.2,80.6
		c2.4-2.6,3.9-3.5,4.4-4.8c11-28.6,21.5-57.4,24.6-88.3c1.2-12.2,4.1-24.4,4.3-36.6c0.2-12.9-1.7-25.8-2.8-38.7
		c-0.7-7.6-1.7-15.2-2.6-23.1c4.4,4.1,8.3,7.8,12.3,11.3c4.6,4.1,9.7,3.9,15.8,0.5c4.4,21.5,8.6,42.6,13,63.5
		c3.1,14.8,1.5,29-3.5,43.2c-7.2,20.1-14,40.3-21,60.5c-0.8,2.2-1.2,4.5-1.7,6.8c0.7,0.3,1.4,0.6,2.1,0.9c1-1.7,2.4-3.3,3-5.2
		c8-23.2,15.9-46.5,23.9-69.8c4.8-13.9,3.3-27.9,0.7-42c-2.8-15.5-3.7-31.1-1.2-47.4c3.5,12.1,9.8,19.1,24.2,13.5
		c-1.6,19.5-3.3,37.9-4.8,56.4c-3.1,38.5-17.3,74-30.9,109.5c-9.3,24.2-23.9,45.6-43.2,62.7c-26.2,23.3-68.1,96.2-87,125.5
		c-12.9,20-7,18-30.1,13.5c-24.3-4.7-48.1-12-72.2-18.2c-0.9-0.2-1.6-0.9-2.8-1.7c20.2-20.7,43.4-94.9,52.7-120.1
		c8.2-22.1,16.3-44.4,30.1-63.5c23.3-32.4,38.7-68.1,49.8-106c3.5-11.8,8.1-23.2,12.5-34.7c1.9-4.9,4.7-9.4,8.6-13.8
		c0,2.8,0.1,5.7,0,8.5c-0.1,5.6,1.7,9.7,6.8,12.7c1.8,1.1,3.3,4.9,2.9,7.1c-6.8,38.3-11.3,77.3-29.9,112.5c-0.5,0.9-0.4,2.1-0.6,3.1
		C507,278.9,507.5,279.2,508.1,279.6z"/>
	<path class="st0" d="M114.6,205.7c14.5,4.4,19.8,1.1,24.6-15.4c0.6,3.8,1.3,5.7,1.2,7.6c-0.9,15.7-1.3,31.6-3.3,47.2
		c-1.8,13.9-1.8,27.1,3,40.5c7.7,21.4,14.7,43,22.1,64.5c0.8,2.2,2,4.3,3,6.5c0.7-0.2,1.4-0.4,2.1-0.5c-0.4-2.4-0.6-4.9-1.4-7.2
		c-5.7-16.9-11-34-17.5-50.7c-7.8-19.8-10.7-39.6-5.4-60.6c4.6-18.2,7.6-36.7,11.5-55.5c14.5,7.3,19.4-5.1,27.1-12.4
		c-1.4,21.8-4.7,43.3-3.8,64.7c0.9,21.7,5.1,43.3,9.4,64.6c4.3,21.1,12,41.2,20.6,60.8c0.7-0.2,1.3-0.5,2-0.7
		c-7.7-26.1-18-51.7-22.2-78.3c-4.2-26.6-2.3-54.3-3.2-82.4c17.2,4,17.7-8.8,22.1-19.1c0.9,3.5,2.3,7,2.5,10.6
		c1.1,21.1,1.3,42.3,3,63.4c1,12.6,2.4,25.8,6.8,37.5c8.3,22.1,18.9,43.3,28.7,64.9c0.8,1.9,2.6,3.3,5.2,6.6c0-3.4,0.4-4.8-0.1-5.7
		c-16.9-32-22-67.2-28.3-102.1c-0.4-2.1-0.7-4.1-1.2-6.2c-1.2-5.6-2.2-10.5,4.9-13.7c2.4-1.1,3.5-6.2,4.2-9.6
		c0.6-2.8-0.1-5.9-0.3-8.9c0.6-0.3,1.1-0.5,1.7-0.8c2.5,4.8,5.6,9.5,7.5,14.6c7.7,21.2,15.5,42.3,22.2,63.8
		c5.8,18.6,13,36.4,24.5,52.1c26.9,37,43.8,78.5,56.5,122.1c4.3,14.6,9.6,28.5,22.4,40.7c-20,5.5-38.1,10.9-56.5,15.5
		c-10.1,2.5-20.6,3.7-30.9,5.5c-5.6,1-9.3-0.5-12.8-5.5c-15.6-22-31.4-43.8-47.8-65.2c-5.6-7.3-13.2-13-20.1-19.3
		c-27.2-25-45.9-55.4-56.7-90.5c-7.3-23.7-15.2-47.4-19.9-71.6C117.6,254.1,117,230.2,114.6,205.7z"/>
	<path class="st1" d="M434.2,293c-49.4,0-98.2,0-147.7,0c0-95.7,0-191.1,0-287c49.1,0,98.1,0,147.7,0
		C434.2,101.5,434.2,196.9,434.2,293z M427.1,267.2c0-78.5,0-157,0-235.9c-10.4-1.1-17.6-5.4-16.8-16.8c-33.8,0-66.6,0-99.4,0
		c-1.7,11.7-3.1,13.1-17,17.4c0,78.5,0,157.1,0,235.9c10.8,0.4,16.6,5.9,17,16.7c33.3,0,66.2,0,99,0
		C412.2,271.9,413.6,270.5,427.1,267.2z"/>
	<path class="st2" d="M603.4,315.4c7.4-18.1,13.9-34.2,20.6-50.2c0.8-2,2.8-3.9,4.7-5c12.1-7.4,24.6-14.3,39.1-15.3
		c4.3-0.3,9.4,1,13,3.4c8.3,5.5,7.9,10.8-0.3,16.3C655.3,281.3,630.1,297.8,603.4,315.4z"/>
	<path class="st2" d="M155.9,394.1c-7-3.8-14.2-7.2-20.8-11.5c-19.2-12.4-38.2-25.2-57.2-37.8c-6.7-4.5-7-7.2-1.8-13.3
		c5.2-6,12.4-7.5,19.1-5.2c12.4,4.3,24.3,10,36.2,15.5c2,0.9,3.7,3.6,4.7,5.8c6.7,15.5,13.2,31.1,19.7,46.7
		C155.8,394.2,155.9,394.1,155.9,394.1z"/>
	<path class="st3" d="M114.8,189c1.1-2.7,2.1-7.4,4.6-11c3.5-5,8.4-4,10.2,1.8c1.5,4.8,2.6,9.9,2.5,14.8c-0.1,4.9-3,9.8-8.4,9.1
		c-3-0.4-5.5-5-7.8-8C115.1,194.5,115.4,192.5,114.8,189z"/>
	<path class="st3" d="M645.3,110.8c-2,3.6-3.9,8-6.9,11.4c-0.9,1-6.5,0.1-7.2-1.3c-2.1-4-3.2-8.7-3.7-13.2c-0.3-2.6,0.8-5.5,1.9-8
		c1-2.1,3.1-5.3,4.5-5.2c2.6,0.2,5.9,1.9,7.2,4.1C643.1,101.7,643.7,105.7,645.3,110.8z"/>
	<path class="st3" d="M186.1,178.2c0.5-2,0.5-5.5,2.1-8c1.1-1.7,4.7-3,6.7-2.5c2,0.5,4.9,3.6,4.8,5.4c-0.2,5.5-1.3,11-3,16.2
		c-0.7,2.1-3.8,3.3-5.8,5c-1.2-2-3-3.8-3.6-5.9C186.5,185.5,186.6,182.4,186.1,178.2z"/>
	<path class="st3" d="M573.6,97.1c-0.6,4.3-0.8,7.8-1.7,11.2c-0.4,1.7-1.9,4.1-3.2,4.4c-1.5,0.3-4.6-1.2-5-2.4
		c-1.8-6.4-3.2-12.9-4-19.5c-0.1-1.2,3.4-3.8,5.4-4.1c2-0.3,5.1,1.1,6.2,2.7C573,91.7,573.1,94.9,573.6,97.1z"/>
	<path class="st3" d="M589.6,73.9c3.1,2.9,5.4,4.2,6.2,6.1c1.8,4.5,3,9.2,4,13.9c1.1,5-2.6,6.7-5.4,4.1c-4.7-4.3-8.6-9.9-11.6-15.5
		C582.1,81.4,586.7,77.4,589.6,73.9z"/>
	<path class="st4" d="M158.9,178c1.7-6.1,3.1-12.3,5.4-18.1c0.6-1.6,4.3-3.2,6.1-2.8c2.5,0.6,5.9,2.8,6.6,5
		C179.2,169.6,167.6,180.2,158.9,178z"/>
	<path class="st5" d="M223,209.7c4.8,7,5.3,14.9,1.5,22.3c-7.6,0-6-6.4-6.8-10.5C216.7,216.7,216.9,211.7,223,209.7z"/>
	<path class="st4" d="M532.1,143c0.7-3.8,1.1-7.3,2.1-10.5c0.4-1.2,2.1-2.7,3.3-2.7c1.2,0,3.5,1.6,3.5,2.5
		c-0.1,5.6-0.5,11.3-1.3,16.8c0,0.3-4.6,0.9-5.7-0.1C532.6,147.6,532.6,144.8,532.1,143z"/>
	<path class="st2" d="M155.8,394.2c0.2,0.2,0.3,0.3,0.5,0.5c-0.1-0.2-0.2-0.4-0.3-0.6C155.9,394.1,155.8,394.2,155.8,394.2z"/>
	<path class="st6" d="M427.1,267.2c-13.4,3.4-14.9,4.8-17.3,17.3c-32.8,0-65.7,0-99,0c-0.4-10.8-6.1-16.2-17-16.7
		c0-78.8,0-157.4,0-235.9c14-4.3,15.3-5.6,17-17.4c32.8,0,65.7,0,99.4,0c-0.7,11.4,6.4,15.7,16.8,16.8
		C427.1,110.2,427.1,188.7,427.1,267.2z M420.6,149.4c0-35.4-0.1-70.8,0.1-106.1c0-4.2-1-6.3-5-8.5c-4-2.2-7.4-6.3-9.9-10.3
		c-2.1-3.4-3.8-5.1-8-5c-25.1,0.2-50.3,0.1-75.4,0c-3.7,0-5.5,1.1-7.3,4.6c-2.1,4.1-5.6,8.3-9.6,10.5c-4.2,2.3-5.8,4.6-5.3,9
		c0.3,2.1,0,4.2,0,6.3c0,68.2,0,136.4,0,204.6c0,4.4,0.1,7.6,5.3,9.8c3.9,1.6,7.5,5.8,9.3,9.8c1.9,4.3,4.1,5.3,8.4,5.3
		c24.7-0.1,49.4-0.2,74,0c4.2,0,6.5-1.1,8.7-5c2.3-4.1,5.9-8.1,9.9-10.3c4-2.2,5-4.3,5-8.5C420.5,220.2,420.6,184.8,420.6,149.4z"/>
	<path class="st1" d="M420.6,149.4c0,35.4-0.1,70.8,0.1,106.1c0,4.2-1,6.3-5,8.5c-4,2.2-7.6,6.2-9.9,10.3c-2.2,3.9-4.5,5.1-8.7,5
		c-24.7-0.2-49.4-0.2-74,0c-4.2,0-6.4-1-8.4-5.3c-1.8-3.9-5.4-8.2-9.3-9.8c-5.2-2.2-5.3-5.4-5.3-9.8c0.1-68.2,0-136.4,0-204.6
		c0-2.1,0.2-4.2,0-6.3c-0.5-4.5,1-6.7,5.3-9c4-2.2,7.5-6.3,9.6-10.5c1.8-3.6,3.7-4.7,7.3-4.6c25.1,0.1,50.3,0.1,75.4,0
		c4.2,0,5.9,1.7,8,5c2.5,4,5.9,8.1,9.9,10.3c4,2.2,5,4.3,5,8.5C420.5,78.7,420.6,114,420.6,149.4z M360.8,106
		c-23.9-2-44.1,21.4-44.2,43c-0.2,23.9,21.8,44.2,43.5,44.2c23.2,0.1,44-20.4,44.2-43.4C404.4,125,382.2,104.2,360.8,106z"/>
	<path class="st7" d="M360.8,106c21.4-1.8,43.6,19,43.4,43.8c-0.2,23-20.9,43.5-44.2,43.4c-21.6-0.1-43.6-20.4-43.5-44.2
		C316.7,127.4,336.9,104,360.8,106z"/>
</g>
<g>
	<rect x="-376" y="553.4" class="st8" width="1511.2" height="292.6"/>
	<path class="st0" d="M161.5,626.6v-71.2h26.6c5.9,0,11,0.9,15.4,2.8c4.4,1.9,8.1,4.4,11.1,7.6c3,3.2,5.2,7,6.7,11.3
		s2.3,8.9,2.3,13.8c0,5.4-0.8,10.3-2.5,14.7c-1.7,4.4-4.1,8.1-7.2,11.2c-3.1,3.1-6.9,5.5-11.2,7.2c-4.4,1.7-9.2,2.6-14.6,2.6H161.5z
		 M206.8,590.9c0-3.1-0.4-6-1.3-8.6c-0.8-2.6-2.1-4.8-3.7-6.7c-1.6-1.9-3.6-3.3-5.9-4.3c-2.3-1-5-1.5-7.9-1.5h-10.1v42.3h10.1
		c3,0,5.7-0.5,8-1.6c2.3-1.1,4.3-2.6,5.9-4.5c1.6-1.9,2.8-4.1,3.6-6.7C206.4,596.8,206.8,594,206.8,590.9z"/>
	<path class="st0" d="M274.5,627.2c-5.3,0-10.1-1-14.4-3.1c-4.3-2.1-8.1-4.8-11.1-8.2c-3.1-3.4-5.5-7.2-7.2-11.6
		c-1.7-4.3-2.6-8.8-2.6-13.4c0-4.7,0.9-9.2,2.7-13.5c1.8-4.3,4.2-8.2,7.4-11.5c3.2-3.3,6.9-5.9,11.3-7.9c4.3-2,9.1-3,14.2-3
		c5.3,0,10.1,1,14.4,3.1c4.3,2.1,8.1,4.8,11.1,8.2c3.1,3.4,5.4,7.3,7.1,11.6c1.7,4.3,2.5,8.8,2.5,13.2c0,4.7-0.9,9.2-2.7,13.5
		c-1.8,4.3-4.2,8.2-7.4,11.5c-3.1,3.3-6.9,6-11.2,8C284.4,626.2,279.7,627.2,274.5,627.2z M256,591.1c0,2.7,0.4,5.4,1.2,8
		c0.8,2.6,2,4.9,3.6,6.9c1.6,2,3.5,3.6,5.9,4.8c2.3,1.2,5,1.8,8,1.8c3.1,0,5.9-0.6,8.2-1.9c2.3-1.3,4.3-2.9,5.8-5
		c1.5-2,2.7-4.3,3.5-6.9c0.8-2.6,1.2-5.2,1.2-7.9c0-2.7-0.4-5.4-1.2-8c-0.8-2.6-2-4.8-3.6-6.8c-1.6-2-3.6-3.5-5.9-4.7
		c-2.3-1.2-5-1.8-8-1.8c-3.1,0-5.9,0.6-8.2,1.9c-2.3,1.2-4.2,2.9-5.8,4.9c-1.6,2-2.7,4.3-3.5,6.9C256.3,585.8,256,588.5,256,591.1z"
		/>
	<path class="st0" d="M329.6,626.6v-71.2H346v56.8h34.5v14.4H329.6z"/>
	<path class="st0" d="M398.3,626.6v-71.2h16.4v56.8h34.5v14.4H398.3z"/>
	<path class="st0" d="M486.3,555.4h14.8l26,71.2h-16.8l-5.5-15.9h-22.2l-5.4,15.9h-16.8L486.3,555.4z M502.1,599.3l-8.3-25.2
		l-8.5,25.2H502.1z"/>
	<path class="st0" d="M544.2,626.6v-71.2h32.1c3.3,0,6.4,0.7,9.3,2.1c2.8,1.4,5.3,3.2,7.4,5.5c2.1,2.3,3.7,4.8,4.9,7.7
		c1.2,2.9,1.8,5.8,1.8,8.7c0,2.2-0.3,4.3-0.8,6.4c-0.5,2-1.3,4-2.3,5.8c-1,1.8-2.2,3.4-3.7,4.9c-1.4,1.4-3.1,2.7-4.9,3.7l15.6,26.5
		H585l-13.6-23h-10.7v23H544.2z M560.6,589.3h15c1.9,0,3.6-0.9,5-2.8c1.4-1.8,2.1-4.2,2.1-7.1c0-2.9-0.8-5.3-2.4-7
		c-1.6-1.7-3.3-2.6-5.2-2.6h-14.5V589.3z"/>
	<path class="st0" d="M125.8,696.6c-0.2-0.3-0.9-0.8-2.1-1.5c-1.2-0.7-2.7-1.5-4.5-2.3c-1.8-0.8-3.8-1.5-5.9-2.1
		c-2.1-0.6-4.3-0.9-6.4-0.9c-5.9,0-8.8,2-8.8,5.9c0,1.2,0.3,2.2,1,3c0.6,0.8,1.6,1.5,2.8,2.2c1.2,0.6,2.8,1.2,4.7,1.8
		c1.9,0.5,4,1.1,6.5,1.8c3.4,0.9,6.5,2,9.2,3.1c2.7,1.1,5.1,2.5,7,4.1c1.9,1.6,3.4,3.6,4.4,6c1,2.3,1.6,5.1,1.6,8.4
		c0,4-0.8,7.4-2.3,10.2c-1.5,2.8-3.5,5-6,6.7c-2.5,1.7-5.3,2.9-8.5,3.7c-3.2,0.8-6.5,1.2-9.9,1.2c-2.6,0-5.3-0.2-8-0.6
		c-2.7-0.4-5.4-1-8-1.8c-2.6-0.8-5.1-1.7-7.6-2.8c-2.4-1.1-4.7-2.3-6.8-3.7l7.2-14.3c0.3,0.3,1.1,1,2.6,1.9c1.5,0.9,3.3,1.9,5.5,2.8
		c2.2,0.9,4.6,1.8,7.3,2.5c2.7,0.7,5.4,1.1,8.1,1.1c5.8,0,8.7-1.8,8.7-5.3c0-1.3-0.4-2.4-1.3-3.3c-0.9-0.9-2.1-1.7-3.6-2.4
		c-1.5-0.7-3.4-1.4-5.5-2c-2.1-0.6-4.4-1.3-6.9-2c-3.3-1-6.1-2.1-8.5-3.3c-2.4-1.2-4.4-2.5-6-4.1c-1.6-1.5-2.7-3.3-3.5-5.3
		c-0.8-2-1.2-4.3-1.2-7c0-3.7,0.7-7.1,2.1-9.9c1.4-2.9,3.3-5.3,5.7-7.3c2.4-2,5.2-3.5,8.4-4.5c3.2-1,6.5-1.5,10.1-1.5
		c2.5,0,4.9,0.2,7.3,0.7s4.7,1.1,6.9,1.8c2.2,0.7,4.3,1.6,6.2,2.5c1.9,0.9,3.7,1.9,5.3,2.8L125.8,696.6z"/>
	<path class="st0" d="M150.7,710.8c0-4.3,0.8-8.5,2.4-12.8c1.6-4.2,3.9-8,7-11.4c3.1-3.3,6.8-6.1,11.2-8.1s9.4-3.1,15-3.1
		c6.7,0,12.5,1.4,17.4,4.3c4.9,2.9,8.6,6.6,11,11.2l-12.6,8.8c-0.8-1.9-1.8-3.4-3.1-4.7c-1.2-1.2-2.6-2.2-4.1-3
		c-1.5-0.8-3-1.3-4.5-1.6c-1.5-0.3-3-0.5-4.5-0.5c-3.1,0-5.9,0.6-8.2,1.9c-2.3,1.3-4.3,2.9-5.8,4.9c-1.5,2-2.7,4.3-3.4,6.8
		c-0.7,2.5-1.1,5.1-1.1,7.7c0,2.8,0.4,5.5,1.3,8.1c0.9,2.6,2.1,4.9,3.8,6.9c1.6,2,3.6,3.6,5.9,4.8c2.3,1.2,4.9,1.8,7.8,1.8
		c1.5,0,3-0.2,4.6-0.6c1.6-0.4,3.1-0.9,4.5-1.7c1.4-0.8,2.8-1.8,4-3c1.2-1.2,2.2-2.8,2.9-4.6l13.4,7.9c-1.1,2.6-2.7,4.9-4.8,7
		c-2.1,2.1-4.5,3.8-7.3,5.2c-2.7,1.4-5.7,2.5-8.7,3.2c-3.1,0.7-6.1,1.1-9,1.1c-5.1,0-9.9-1.1-14.2-3.2c-4.3-2.1-8-4.9-11.1-8.4
		c-3.1-3.5-5.5-7.4-7.2-11.8C151.5,719.8,150.7,715.3,150.7,710.8z"/>
	<path class="st0" d="M295.1,675.8V747h-16.4v-29.2h-28.4V747h-16.4v-71.2h16.4v27.6h28.4v-27.6H295.1z"/>
	<path class="st0" d="M349.9,747.6c-5.3,0-10.1-1-14.4-3.1c-4.3-2.1-8.1-4.8-11.1-8.2c-3.1-3.4-5.5-7.2-7.2-11.6
		c-1.7-4.3-2.6-8.8-2.6-13.4c0-4.7,0.9-9.2,2.7-13.5c1.8-4.3,4.2-8.2,7.4-11.5c3.2-3.3,6.9-5.9,11.3-7.9c4.3-2,9.1-3,14.2-3
		c5.3,0,10.1,1,14.4,3.1c4.3,2.1,8.1,4.8,11.1,8.2c3.1,3.4,5.4,7.3,7.1,11.6c1.7,4.3,2.5,8.8,2.5,13.2c0,4.7-0.9,9.2-2.7,13.5
		c-1.8,4.3-4.2,8.2-7.4,11.5c-3.1,3.3-6.9,6-11.2,8C359.8,746.6,355.1,747.6,349.9,747.6z M331.4,711.5c0,2.7,0.4,5.4,1.2,8
		c0.8,2.6,2,4.9,3.6,6.9c1.6,2,3.5,3.6,5.9,4.8c2.3,1.2,5,1.8,8,1.8c3.1,0,5.9-0.6,8.2-1.9c2.3-1.3,4.3-2.9,5.8-5
		c1.5-2,2.7-4.3,3.5-6.9c0.8-2.6,1.2-5.2,1.2-7.9c0-2.7-0.4-5.4-1.2-8c-0.8-2.6-2-4.8-3.6-6.8c-1.6-2-3.6-3.5-5.9-4.7
		c-2.3-1.2-5-1.8-8-1.8c-3.1,0-5.9,0.6-8.2,1.9c-2.3,1.2-4.2,2.9-5.8,4.9c-1.6,2-2.7,4.3-3.5,6.9
		C331.8,706.2,331.4,708.8,331.4,711.5z"/>
	<path class="st0" d="M405,747v-71.2h16.4v56.8h34.5V747H405z"/>
	<path class="st0" d="M493,675.8h14.8l26,71.2H517l-5.5-15.9h-22.2l-5.4,15.9h-16.8L493,675.8z M508.8,719.7l-8.3-25.2l-8.5,25.2
		H508.8z"/>
	<path class="st0" d="M550.9,747v-71.2H583c3.3,0,6.4,0.7,9.3,2.1c2.8,1.4,5.3,3.2,7.4,5.5c2.1,2.3,3.7,4.8,4.9,7.7
		c1.2,2.9,1.8,5.8,1.8,8.7c0,2.2-0.3,4.3-0.8,6.4c-0.5,2-1.3,4-2.3,5.8c-1,1.8-2.2,3.4-3.7,4.9c-1.4,1.4-3.1,2.7-4.9,3.7l15.6,26.5
		h-18.6l-13.6-23h-10.7v23H550.9z M567.3,709.7h15c1.9,0,3.6-0.9,5-2.8c1.4-1.8,2.1-4.2,2.1-7.1c0-2.9-0.8-5.3-2.4-7
		c-1.6-1.7-3.3-2.6-5.2-2.6h-14.5V709.7z"/>
	<path class="st0" d="M670.8,696.6c-0.2-0.3-0.9-0.8-2.1-1.5c-1.2-0.7-2.7-1.5-4.5-2.3c-1.8-0.8-3.8-1.5-5.9-2.1
		c-2.1-0.6-4.3-0.9-6.4-0.9c-5.9,0-8.8,2-8.8,5.9c0,1.2,0.3,2.2,1,3c0.6,0.8,1.6,1.5,2.8,2.2c1.2,0.6,2.8,1.2,4.7,1.8
		c1.9,0.5,4,1.1,6.5,1.8c3.4,0.9,6.5,2,9.2,3.1c2.7,1.1,5.1,2.5,7,4.1c1.9,1.6,3.4,3.6,4.4,6c1,2.3,1.6,5.1,1.6,8.4
		c0,4-0.8,7.4-2.3,10.2c-1.5,2.8-3.5,5-6,6.7c-2.5,1.7-5.3,2.9-8.5,3.7c-3.2,0.8-6.5,1.2-9.9,1.2c-2.6,0-5.3-0.2-8-0.6
		c-2.7-0.4-5.4-1-8-1.8c-2.6-0.8-5.1-1.7-7.6-2.8c-2.4-1.1-4.7-2.3-6.8-3.7l7.2-14.3c0.3,0.3,1.1,1,2.6,1.9c1.5,0.9,3.3,1.9,5.5,2.8
		c2.2,0.9,4.6,1.8,7.3,2.5c2.7,0.7,5.4,1.1,8.1,1.1c5.8,0,8.7-1.8,8.7-5.3c0-1.3-0.4-2.4-1.3-3.3c-0.9-0.9-2.1-1.7-3.6-2.4
		c-1.5-0.7-3.4-1.4-5.5-2c-2.1-0.6-4.4-1.3-6.9-2c-3.3-1-6.1-2.1-8.5-3.3c-2.4-1.2-4.4-2.5-6-4.1c-1.6-1.5-2.7-3.3-3.5-5.3
		c-0.8-2-1.2-4.3-1.2-7c0-3.7,0.7-7.1,2.1-9.9c1.4-2.9,3.3-5.3,5.7-7.3c2.4-2,5.2-3.5,8.4-4.5c3.2-1,6.5-1.5,10.1-1.5
		c2.5,0,4.9,0.2,7.3,0.7c2.4,0.5,4.7,1.1,6.9,1.8c2.2,0.7,4.3,1.6,6.2,2.5c1.9,0.9,3.7,1.9,5.3,2.8L670.8,696.6z"/>
</g>
<g>
</g>
<g>
</g>
<g>
</g>
<g>
</g>
<g>
</g>
<g>
</g>
<g>
</g>
<g>
</g>
<g>
</g>
<g>
</g>
<g>
</g>
<g>
</g>
<g>
</g>
<g>
</g>
<g>
</g>
</svg>
